<svg width="528" height="479" viewBox="0 0 528 479" fill="none" xmlns="http://www.w3.org/2000/svg">
<path d="M-86.6225 48.0855C-266.087 87.3689 -432.67 144.444 -556.915 204.952C-619.041 235.207 -670.547 266.305 -707.776 296.441C-745.025 326.593 -767.85 355.672 -772.892 381.933C-777.934 408.194 -764.762 429.393 -736.332 445.169C-707.916 460.936 -664.356 471.224 -608.907 475.743C-498.015 484.781 -339.693 470.737 -160.229 431.454C19.2356 392.17 185.819 335.095 310.064 274.588C372.19 244.332 423.695 213.234 460.925 183.098C498.174 152.946 520.998 123.867 526.04 97.6061C531.083 71.3448 517.911 50.1458 489.481 34.3704C461.064 18.6031 417.505 8.31486 362.055 3.79564C251.164 -5.24222 92.8419 8.80206 -86.6225 48.0855Z" stroke="#31A396" stroke-width="1.17184"/>
</svg>
