<svg width="393" height="521" viewBox="0 0 393 521" fill="none" xmlns="http://www.w3.org/2000/svg">
<path d="M-202.16 94.1357C-367.401 149.231 -517.416 217.764 -626.371 284.015C-680.853 317.144 -725.037 349.683 -755.721 379.663C-786.435 409.672 -803.468 436.962 -803.998 459.666C-804.528 482.369 -788.511 498.64 -758.728 508.478C-728.973 518.307 -685.627 521.661 -631.849 518.694C-524.302 512.759 -375.158 481.546 -209.917 426.451C-44.6749 371.356 105.339 302.823 214.295 236.572C268.777 203.443 312.961 170.904 343.645 140.924C374.358 110.915 391.391 83.6248 391.921 60.9213C392.451 38.2178 376.435 21.9473 346.652 12.109C316.897 2.28008 273.551 -1.07455 219.773 1.89316C112.225 7.82812 -36.9178 39.0406 -202.16 94.1357Z" stroke="#72C0B7" stroke-width="1.17184"/>
</svg>
