<svg width="349" height="534" viewBox="0 0 349 534" fill="none" xmlns="http://www.w3.org/2000/svg">
<path d="M-236.549 109.796C-396.33 169.111 -540.311 240.454 -643.927 307.836C-695.74 341.53 -737.429 374.214 -765.95 403.887C-794.504 433.594 -809.702 460.112 -808.906 481.559C-808.111 503.005 -791.385 517.672 -761.433 525.66C-731.515 533.638 -688.567 534.903 -635.696 529.735C-529.964 519.402 -384.673 483.358 -224.892 424.042C-65.1106 364.727 78.8707 293.384 182.487 226.002C234.299 192.308 275.988 159.624 304.51 129.951C333.064 100.244 348.261 73.726 347.466 52.2794C346.67 30.8327 329.945 16.1656 299.992 8.17812C270.074 0.199733 227.126 -1.06481 174.256 4.10253C68.5232 14.4364 -76.7675 50.4803 -236.549 109.796Z" stroke="#88CAC2" stroke-width="1.17184"/>
</svg>
