<svg width="437" height="508" viewBox="0 0 437 508" fill="none" xmlns="http://www.w3.org/2000/svg">
<path d="M-167.399 78.9716C-337.884 129.357 -493.809 194.622 -608.081 259.397C-665.221 291.786 -711.914 324.035 -744.8 354.216C-777.713 384.421 -796.648 412.414 -798.597 436.356C-800.546 460.297 -785.348 478.203 -755.853 489.964C-726.381 501.716 -682.766 507.274 -628.213 506.653C-519.113 505.411 -366.389 479.456 -195.905 429.07C-25.4201 378.684 130.505 313.419 244.777 248.645C301.917 216.255 348.61 184.007 381.497 153.826C414.409 123.621 433.344 95.6273 435.293 71.6857C437.242 47.7442 422.045 29.8386 392.549 18.0777C363.077 6.32614 319.463 0.767589 264.909 1.38873C155.809 2.63091 3.08522 28.5858 -167.399 78.9716Z" stroke="#5CB6AC" stroke-width="1.17184"/>
</svg>
