<svg width="183" height="568" viewBox="0 0 183 568" fill="none" xmlns="http://www.w3.org/2000/svg">
<path d="M-343.204 162.992C-477.609 233.592 -595.028 311.093 -676.214 379.312C-716.812 413.424 -748.323 445.193 -768.37 472.598C-778.393 486.301 -785.53 498.885 -789.512 510.104C-793.492 521.318 -794.306 531.129 -791.742 539.339C-789.177 547.549 -783.327 553.859 -774.451 558.32C-765.57 562.782 -753.691 565.378 -739.139 566.171C-710.036 567.759 -670.358 562.134 -622.898 549.991C-527.987 525.708 -402.077 475.392 -267.672 404.791C-133.267 334.191 -15.8484 256.69 65.3385 188.471C105.936 154.359 137.447 122.59 157.493 95.185C167.517 81.4824 174.654 68.8978 178.636 57.679C182.616 46.4651 183.43 36.6545 180.866 28.4443C178.301 20.234 172.451 13.9243 163.575 9.46348C154.694 5.00068 142.815 2.4052 128.263 1.61159C99.1605 0.0244167 59.4825 5.64949 12.0224 17.7922C-82.8888 42.0752 -208.799 92.3911 -343.204 162.992Z" stroke="#DEF0EE" stroke-width="1.17184"/>
</svg>
