<svg width="370" height="528" viewBox="0 0 370 528" fill="none" xmlns="http://www.w3.org/2000/svg">
<path d="M-220.893 101.781C-383.54 159.085 -530.651 229.142 -637.01 296.072C-690.194 329.54 -733.157 362.207 -762.774 392.083C-792.422 421.991 -808.54 448.94 -808.395 471.052C-808.25 493.164 -791.854 508.658 -761.951 517.584C-732.08 526.502 -688.888 528.814 -635.511 524.738C-528.767 516.587 -381.418 482.899 -218.771 425.595C-56.124 368.291 90.9868 298.234 197.346 231.304C250.529 197.836 293.492 165.169 323.11 135.293C352.758 105.385 368.876 78.4357 368.731 56.3238C368.586 34.2118 352.19 18.7182 322.287 9.79152C292.415 0.874104 249.223 -1.43799 195.847 2.63779C89.1025 10.7887 -58.2466 44.4766 -220.893 101.781Z" stroke="#7DC5BD" stroke-width="1.17184"/>
</svg>
