<svg width="164" height="569" viewBox="0 0 164 569" fill="none" xmlns="http://www.w3.org/2000/svg">
<path d="M-353.255 168.535C-484.169 239.914 -598.079 317.584 -676.415 385.447C-715.587 419.382 -745.837 450.842 -764.873 477.817C-774.392 491.305 -781.086 503.644 -784.699 514.589C-788.31 525.529 -788.83 535.036 -786.057 542.916C-783.284 550.796 -777.318 556.767 -768.41 560.881C-759.497 564.997 -747.671 567.238 -733.253 567.675C-704.418 568.549 -665.329 562.203 -618.731 549.373C-525.544 523.714 -402.445 472.159 -271.531 400.779C-140.617 329.4 -26.7068 251.73 51.6294 183.868C90.8012 149.933 121.052 118.473 140.088 91.4976C149.606 78.0097 156.301 65.6702 159.914 54.7251C163.525 43.7849 164.045 34.2782 161.272 26.3981C158.499 18.5179 152.533 12.5476 143.624 8.43354C134.712 4.31767 122.886 2.07627 108.468 1.63935C79.6323 0.765531 40.544 7.11149 -6.05418 19.9418C-99.2417 45.6 -222.341 97.1559 -353.255 168.535Z" stroke="#E9F5F4" stroke-width="1.17184"/>
</svg>
