<svg width="243" height="559" viewBox="0 0 243 559" fill="none" xmlns="http://www.w3.org/2000/svg">
<path d="M-308.057 144.921C-452.445 212.291 -580.1 288.385 -669.767 356.939C-714.605 391.22 -749.915 423.594 -773.069 452.028C-796.261 480.508 -807.094 504.832 -803.405 523.132C-799.716 541.432 -781.783 552.333 -752.084 556.136C-722.434 559.932 -681.265 556.621 -631.505 546.763C-531.993 527.048 -398.246 481.173 -253.859 413.803C-109.471 346.433 18.1845 270.34 107.852 201.785C152.689 167.505 188 135.131 211.154 106.697C234.345 78.2161 245.178 53.8927 241.489 35.5925C237.801 17.2924 219.867 6.39107 190.169 2.58871C160.518 -1.20746 119.349 2.10332 69.5891 11.9616C-29.9226 31.6764 -163.669 77.5509 -308.057 144.921Z" stroke="#BEE2DE" stroke-width="1.17184"/>
</svg>
