<svg width="482" height="494" viewBox="0 0 482 494" fill="none" xmlns="http://www.w3.org/2000/svg">
<path d="M-128.687 63.3143C-303.982 108.44 -465.498 169.917 -584.92 232.819C-644.636 264.272 -693.792 296.063 -728.878 326.322C-763.987 356.599 -784.865 385.215 -788.325 410.37C-791.784 435.524 -777.533 455.097 -748.481 468.858C-719.447 482.61 -675.748 490.498 -620.618 492.386C-510.365 496.163 -354.523 475.943 -179.228 430.817C-3.93258 385.691 157.583 324.214 277.006 261.313C336.721 229.86 385.878 198.068 420.964 167.81C456.072 137.532 476.95 108.916 480.41 83.7615C483.869 58.607 469.618 39.0343 440.566 25.2733C411.533 11.5211 367.833 3.63341 312.703 1.74491C202.451 -2.03183 46.6084 18.1883 -128.687 63.3143Z" stroke="#46ACA1" stroke-width="1.17184"/>
</svg>
