<svg width="572" height="469" viewBox="0 0 572 469" fill="none" xmlns="http://www.w3.org/2000/svg">
<path d="M-36.5977 32.5664C-217.592 65.1006 -386.985 117.218 -514.535 175.165C-578.313 204.139 -631.595 234.556 -670.625 264.687C-709.669 294.828 -734.336 324.59 -741.127 352.292C-747.918 379.994 -736.242 403.223 -709.058 421.459C-681.883 439.69 -639.29 452.873 -584.493 460.534C-474.905 475.854 -316.625 469.071 -135.631 436.537C45.3634 404.003 214.757 351.886 342.306 293.939C406.085 264.964 459.366 234.547 498.397 204.416C537.44 174.275 562.108 144.514 568.899 116.811C575.69 89.1093 564.013 65.8808 536.829 47.6443C509.654 29.4139 467.062 16.2306 412.264 8.5699C302.676 -6.75069 144.397 0.0321599 -36.5977 32.5664Z" stroke="#1B998B" stroke-width="1.17184"/>
</svg>
