<svg width="265" height="555" viewBox="0 0 265 555" fill="none" xmlns="http://www.w3.org/2000/svg">
<path d="M-294.397 138.36C-442.047 204.409 -573.1 279.797 -665.62 348.276C-711.884 382.519 -748.485 415.014 -772.709 443.729C-796.969 472.488 -808.65 497.257 -805.496 516.161C-802.341 535.065 -784.59 546.668 -754.769 551.234C-724.993 555.793 -683.385 553.302 -632.913 544.272C-531.979 526.212 -395.721 482.022 -248.07 415.973C-100.42 349.924 30.6326 274.536 123.153 206.057C169.417 171.814 206.018 139.319 230.242 110.604C254.502 81.8453 266.183 57.0765 263.029 38.1722C259.874 19.268 242.123 7.66525 212.302 3.09897C182.526 -1.46028 140.918 1.03059 90.4463 10.0611C-10.488 28.1205 -146.746 72.3107 -294.397 138.36Z" stroke="#B3DDD8" stroke-width="1.17184"/>
</svg>
