<svg width="306" height="545" viewBox="0 0 306 545" fill="none" xmlns="http://www.w3.org/2000/svg">
<path d="M-266.987 124.328C-420.774 187.249 -558.315 260.833 -656.367 328.925C-705.396 362.974 -744.522 395.63 -770.866 424.871C-797.244 454.151 -810.644 479.821 -808.619 500C-806.595 520.178 -789.304 533.292 -759.362 539.528C-729.46 545.757 -687.125 545.084 -635.399 537.909C-531.956 523.561 -391.078 483.231 -237.291 420.311C-83.5036 357.39 54.038 283.806 152.089 215.714C201.119 181.665 240.245 149.009 266.588 119.768C292.967 90.4886 306.367 64.8177 304.342 44.6395C302.318 24.4612 285.026 11.3474 255.085 5.11067C225.183 -1.11779 182.848 -0.444428 131.122 6.73009C27.6783 21.0779 -113.2 61.4077 -266.987 124.328Z" stroke="#9DD3CD" stroke-width="1.17184"/>
</svg>
