<svg width="285" height="550" viewBox="0 0 285 550" fill="none" xmlns="http://www.w3.org/2000/svg">
<path d="M-281.387 131.239C-432.231 195.829 -566.628 270.437 -661.975 338.836C-709.652 373.039 -747.535 405.668 -772.827 434.694C-798.155 463.762 -810.693 489.025 -808.086 508.599C-805.48 528.174 -787.93 540.554 -758.011 545.965C-728.135 551.369 -686.117 549.785 -634.966 541.67C-532.673 525.441 -393.978 483.113 -243.134 418.523C-92.2898 353.932 42.1071 279.324 137.453 210.925C185.13 176.723 223.014 144.093 248.306 115.067C273.634 85.9995 286.172 60.7369 283.565 41.162C280.959 21.5871 263.409 9.20779 233.49 3.7964C203.613 -1.60728 161.596 -0.0234651 110.445 8.09152C8.15216 24.3201 -130.543 66.6482 -281.387 131.239Z" stroke="#A8D8D3" stroke-width="1.17184"/>
</svg>
