<svg width="127" height="563" viewBox="0 0 127 563" fill="none" xmlns="http://www.w3.org/2000/svg">
<path d="M-365.288 174.738C-487.486 246.332 -592.855 323.184 -664.428 389.549C-700.219 422.735 -727.534 453.277 -744.281 479.208C-752.654 492.174 -758.367 503.96 -761.186 514.327C-764.004 524.688 -763.922 533.592 -760.76 540.852C-757.598 548.112 -751.469 553.473 -742.606 556.991C-733.739 560.511 -722.17 562.172 -708.204 562.049C-680.271 561.804 -642.868 554.428 -598.599 540.709C-510.072 513.273 -394.213 460.511 -272.014 388.917C-149.816 317.323 -44.4474 240.471 27.1263 174.106C62.9168 140.92 90.2318 110.378 106.978 84.4471C115.352 71.4811 121.065 59.6952 123.884 49.3285C126.702 38.9668 126.62 30.0633 123.458 22.8031C120.296 15.5428 114.167 10.182 105.304 6.66375C96.4372 3.14382 84.8682 1.48321 70.9015 1.60595C42.9689 1.8514 5.56557 9.2275 -38.7027 22.9465C-127.23 50.3817 -243.09 103.144 -365.288 174.738Z" stroke="white" stroke-width="1.17184"/>
</svg>
