<svg width="224" height="562" viewBox="0 0 224 562" fill="none" xmlns="http://www.w3.org/2000/svg">
<path d="M-319.4 151.013C-460.46 219.566 -584.679 296.241 -671.481 364.78C-714.885 399.052 -748.906 431.268 -770.999 459.396C-793.129 487.572 -803.13 511.436 -798.93 529.132C-794.73 546.828 -776.643 557.041 -747.099 560.104C-717.605 563.162 -676.91 559.068 -627.897 548.426C-529.881 527.145 -398.722 479.71 -257.662 411.157C-116.602 342.604 7.61721 265.929 94.4188 197.39C137.824 163.118 171.845 130.902 193.937 102.774C216.068 74.598 226.068 50.7343 221.868 33.0382C217.669 15.342 199.581 5.12864 170.037 2.06565C140.543 -0.992085 99.8484 3.10261 50.8356 13.744C-47.1813 35.0248 -178.34 82.4597 -319.4 151.013Z" stroke="#C9E7E3" stroke-width="1.17184"/>
</svg>
