<svg width="204" height="565" viewBox="0 0 204 565" fill="none" xmlns="http://www.w3.org/2000/svg">
<path d="M-331.223 156.925C-469.07 226.612 -589.989 303.774 -674.053 372.183C-716.089 406.391 -748.882 438.388 -769.969 466.147C-780.513 480.026 -788.109 492.82 -792.478 504.278C-796.845 515.732 -797.975 525.814 -795.641 534.325C-793.307 542.836 -787.596 549.46 -778.776 554.247C-769.951 559.036 -758.042 561.968 -743.381 563.106C-714.058 565.38 -673.838 560.466 -625.561 549.017C-529.016 526.121 -400.375 477.119 -262.528 407.432C-124.681 337.745 -3.76212 260.583 80.3017 192.174C122.338 157.966 155.131 125.969 176.218 98.2101C186.761 84.3305 194.358 71.5369 198.727 60.0783C203.094 48.6248 204.224 38.5425 201.89 30.0317C199.556 21.5209 193.845 14.8966 185.025 10.11C176.2 5.32122 164.291 2.38856 149.629 1.25125C120.307 -1.02333 80.0865 3.8908 31.8098 15.34C-64.7347 38.2362 -193.376 87.2375 -331.223 156.925Z" stroke="#D4ECE9" stroke-width="1.17184"/>
</svg>
