<svg width="415" height="514" viewBox="0 0 415 514" fill="none" xmlns="http://www.w3.org/2000/svg">
<path d="M-185.157 86.2753C-353.072 139.085 -506.078 206.02 -617.708 271.536C-673.528 304.296 -718.97 336.683 -750.753 366.748C-782.564 396.84 -800.54 424.457 -801.766 447.747C-802.992 471.036 -787.368 488.086 -757.708 498.845C-728.074 509.595 -684.569 514.008 -630.378 512.169C-522.003 508.493 -371.012 479.82 -203.097 427.01C-35.1822 374.201 117.824 307.266 229.454 241.75C285.274 208.99 330.716 176.603 362.499 146.538C394.31 116.446 412.286 88.8284 413.512 65.539C414.738 42.2496 399.114 25.1996 369.454 14.4406C339.82 3.69119 296.315 -0.72173 242.124 1.11666C133.749 4.79312 -17.242 33.4658 -185.157 86.2753Z" stroke="#67BBB2" stroke-width="1.17184"/>
</svg>
