<svg width="504" height="487" viewBox="0 0 504 487" fill="none" xmlns="http://www.w3.org/2000/svg">
<path d="M-108.878 55.8855C-286.406 98.1769 -450.582 157.535 -572.5 219.303C-633.463 250.189 -683.826 281.66 -720.003 311.877C-756.2 342.112 -778.058 370.973 -782.299 396.685C-786.54 422.397 -772.805 442.779 -744.029 457.535C-715.269 472.283 -671.592 481.352 -616.248 484.531C-505.567 490.887 -348.344 473.68 -170.816 431.389C6.71159 389.098 170.888 329.739 292.806 267.972C353.769 237.086 404.132 205.615 440.309 175.397C476.506 145.162 498.364 116.302 502.605 90.5896C506.846 64.8772 493.111 44.4958 464.334 29.7393C435.574 14.9913 391.898 5.92255 336.554 2.74397C225.873 -3.61275 68.6495 13.5941 -108.878 55.8855Z" stroke="#3CA89C" stroke-width="1.17184"/>
</svg>
