<svg width="551" height="474" viewBox="0 0 551 474" fill="none" xmlns="http://www.w3.org/2000/svg">
<path d="M-65.1519 40.9042C-246.602 77.0873 -415.666 131.847 -542.314 191.118C-605.642 220.755 -658.33 251.504 -696.652 281.599C-734.99 311.706 -758.821 341.054 -764.699 367.929C-770.577 394.804 -757.996 416.891 -729.932 433.757C-701.88 450.616 -658.451 462.198 -602.903 468.13C-491.813 479.993 -332.376 469.247 -150.926 433.064C30.5247 396.881 199.588 342.121 326.237 282.85C389.565 253.213 442.253 222.464 480.574 192.37C518.912 162.262 542.743 132.914 548.621 106.039C554.499 79.1645 541.919 57.0776 513.854 40.2112C485.803 23.3522 442.373 11.7702 386.825 5.83815C275.735 -6.02513 116.299 4.72111 -65.1519 40.9042Z" stroke="#269E91" stroke-width="1.17184"/>
</svg>
