<svg width="460" height="501" viewBox="0 0 460 501" fill="none" xmlns="http://www.w3.org/2000/svg">
<path d="M-147.91 71.4196C-320.856 119.244 -479.615 182.651 -596.48 246.491C-654.917 278.414 -702.845 310.427 -736.829 340.631C-770.837 370.857 -790.734 399.138 -793.423 423.653C-796.113 448.168 -781.369 466.869 -752.072 479.59C-722.796 492.301 -679.112 498.981 -624.242 499.571C-514.51 500.751 -360.164 477.575 -187.218 429.751C-14.2716 381.926 144.488 318.52 261.353 254.679C319.789 222.757 367.717 190.744 401.701 160.539C435.709 130.313 455.607 102.033 458.296 77.5176C460.985 53.0024 446.241 34.3011 416.944 21.5806C387.669 8.8692 343.985 2.18948 289.115 1.59941C179.383 0.419404 25.0364 23.5952 -147.91 71.4196Z" stroke="#51B1A7" stroke-width="1.17184"/>
</svg>
