<svg width="327" height="540" viewBox="0 0 327 540" fill="none" xmlns="http://www.w3.org/2000/svg">
<path d="M-251.575 117.363C-408.401 178.55 -549.189 251.105 -650.032 318.934C-700.457 352.851 -740.865 385.567 -768.292 415.067C-795.754 444.603 -810.044 470.739 -808.619 491.587C-807.194 512.434 -790.168 526.351 -760.201 533.481C-730.271 540.602 -687.607 540.907 -635.286 534.736C-530.651 522.396 -387.517 484.175 -230.691 422.987C-73.8647 361.8 66.9232 289.245 167.766 221.416C218.191 187.499 258.599 154.783 286.026 125.283C313.488 95.7463 327.778 69.6112 326.353 48.7633C324.928 27.9154 307.902 13.9988 277.935 6.86888C248.005 -0.252321 205.341 -0.556989 153.019 5.61359C48.3851 17.9538 -94.749 56.1749 -251.575 117.363Z" stroke="#92CEC8" stroke-width="1.17184"/>
</svg>
