<svg width="145" height="570" viewBox="0 0 145 570" fill="none" xmlns="http://www.w3.org/2000/svg">
<path d="M-363.704 173.026C-491.254 245.146 -601.774 323.003 -677.348 390.569C-715.139 424.355 -744.167 455.545 -762.219 482.139C-771.245 495.436 -777.509 507.556 -780.761 518.256C-784.012 528.95 -784.243 538.184 -781.263 545.767C-778.284 553.349 -772.201 559.012 -763.256 562.811C-754.307 566.612 -742.528 568.53 -728.233 568.641C-699.646 568.863 -661.117 561.856 -615.342 548.392C-523.801 521.466 -403.402 468.755 -275.852 396.635C-148.302 324.514 -37.7827 246.657 37.7917 179.092C75.5826 145.306 104.61 114.115 122.662 87.5215C131.689 74.2244 137.952 62.104 141.204 51.4045C144.455 40.7098 144.686 31.4763 141.707 23.8937C138.728 16.3111 132.644 10.6481 123.699 6.84923C114.75 3.04867 102.971 1.13 88.677 1.01896C60.0894 0.796875 21.5607 7.80445 -24.2143 21.2688C-115.755 48.1947 -236.154 100.905 -363.704 173.026Z" stroke="#F4FAF9" stroke-width="1.17184"/>
</svg>
