<svg width="523" height="652" viewBox="0 0 523 652" fill="none" xmlns="http://www.w3.org/2000/svg">
<path d="M1426.89 -1302.46C1467.12 -1274.03 1486.92 -1220.16 1487.8 -1146.43C1488.68 -1072.75 1470.65 -979.638 1435.69 -873.348C1365.78 -660.79 1228.31 -395.914 1039.81 -129.147C851.311 137.62 647.553 355.657 470.544 492.537C382.031 560.983 300.286 609.074 230.544 632.852C160.756 656.645 103.36 655.979 63.128 627.551C22.8962 599.123 3.10069 545.244 2.22137 471.517C1.34262 397.838 19.3726 304.726 54.3294 198.437C124.236 -14.1219 261.709 -278.998 450.208 -545.764C638.707 -812.531 842.466 -1030.57 1019.47 -1167.45C1107.99 -1235.89 1189.73 -1283.99 1259.47 -1307.76C1329.26 -1331.56 1386.66 -1330.89 1426.89 -1302.46Z" stroke="#1B998B" stroke-width="2"/>
</svg>
