<svg width="678" height="883" viewBox="0 0 678 883" fill="none" xmlns="http://www.w3.org/2000/svg">
<path d="M1718.48 -1470.28C1767.09 -1435.93 1790.98 -1370.9 1792.08 -1282.07C1793.17 -1193.29 1771.49 -1081.13 1729.43 -953.141C1645.33 -697.173 1479.85 -378.25 1252.92 -57.0887C1025.98 264.073 780.63 526.555 567.448 691.318C460.848 773.706 362.37 831.599 278.322 860.212C194.228 888.841 124.951 888.046 76.3369 853.694C27.7225 819.343 3.83702 754.309 2.73814 665.483C1.63985 576.704 23.321 464.547 65.379 336.552C149.488 80.5846 314.963 -238.338 541.898 -559.5C768.833 -880.661 1014.18 -1143.14 1227.37 -1307.91C1333.97 -1390.29 1432.44 -1448.19 1516.49 -1476.8C1600.59 -1505.43 1669.86 -1504.63 1718.48 -1470.28Z" stroke="#1B998B" stroke-width="2"/>
</svg>
