<svg width="495" height="611" viewBox="0 0 495 611" fill="none" xmlns="http://www.w3.org/2000/svg">
<path d="M1376.89 -1275.58C1415.75 -1248.13 1434.89 -1196.12 1435.78 -1124.95C1436.67 -1053.82 1419.3 -963.944 1385.6 -861.347C1318.2 -656.173 1185.56 -400.523 1003.65 -143.073C821.731 114.377 625.053 324.772 454.169 456.826C368.719 522.859 289.798 569.241 222.459 592.158C155.075 615.089 99.6616 614.411 60.8107 586.958C21.9598 559.506 2.81407 507.5 1.92575 436.327C1.03802 365.201 18.4006 275.322 52.1059 172.725C119.51 -32.4487 252.142 -288.099 434.058 -545.549C615.975 -802.999 812.653 -1013.39 983.537 -1145.45C1068.99 -1211.48 1147.91 -1257.86 1215.25 -1280.78C1282.63 -1303.71 1338.04 -1303.03 1376.89 -1275.58Z" stroke="#1B998B" stroke-width="2"/>
</svg>
