<svg width="471" height="574" viewBox="0 0 471 574" fill="none" xmlns="http://www.w3.org/2000/svg">
<path d="M1330.9 -1248.7C1368.37 -1222.22 1386.82 -1172.03 1387.64 -1103.3C1388.46 -1034.62 1371.65 -947.812 1339.06 -848.71C1273.88 -650.527 1145.7 -403.559 969.946 -154.824C794.188 93.9114 604.204 297.208 439.167 424.83C356.64 488.647 280.43 533.48 215.417 555.646C150.358 577.826 96.8856 577.194 59.4171 550.718C21.9486 524.243 3.49453 474.051 2.67479 405.321C1.85563 336.638 18.6634 249.831 51.2562 150.729C116.435 -47.4538 244.613 -294.423 420.371 -543.158C596.129 -791.893 786.112 -995.189 951.149 -1122.81C1033.68 -1186.63 1109.89 -1231.46 1174.9 -1253.63C1239.96 -1275.81 1293.43 -1275.17 1330.9 -1248.7Z" stroke="#1B998B" stroke-width="2"/>
</svg>
