<svg width="756" height="1000" viewBox="0 0 756 1000" fill="none" xmlns="http://www.w3.org/2000/svg">
<path d="M1863.67 -1553.34C1916.38 -1516.09 1942.21 -1445.53 1943.32 -1349.18C1944.43 -1252.88 1920.83 -1131.21 1875.12 -992.358C1783.72 -714.672 1604.07 -368.642 1357.82 -20.1327C1111.56 328.377 845.388 613.27 614.169 792.159C498.551 881.61 391.751 944.494 300.609 975.609C209.422 1006.74 134.283 1005.95 81.5707 968.708C28.8585 931.461 3.02539 860.898 1.91573 764.55C0.806648 668.25 24.4133 546.581 70.117 407.727C161.517 130.041 341.164 -215.988 587.423 -564.498C833.683 -913.007 1099.85 -1197.9 1331.07 -1376.79C1446.69 -1466.24 1553.49 -1529.12 1644.63 -1560.24C1735.82 -1591.37 1810.96 -1590.59 1863.67 -1553.34Z" stroke="#1B998B" stroke-width="2"/>
</svg>
