<svg width="418" height="496" viewBox="0 0 418 496" fill="none" xmlns="http://www.w3.org/2000/svg">
<path d="M1234.24 -1194.7C1268.9 -1170.21 1285.97 -1123.74 1286.69 -1060.03C1287.41 -996.372 1271.79 -915.895 1241.53 -824.003C1181.02 -640.238 1062.1 -411.203 899.08 -180.499C736.063 50.2047 559.892 238.786 406.887 357.193C330.375 416.404 259.736 458.004 199.491 478.585C139.202 499.182 89.697 498.612 55.0387 474.122C20.3804 449.633 3.31092 403.16 2.59054 339.454C1.87069 275.795 17.4921 195.318 47.7512 103.425C108.263 -80.3392 227.183 -309.374 390.2 -540.078C553.217 -770.782 729.388 -959.363 882.393 -1077.77C958.905 -1136.98 1029.54 -1178.58 1089.79 -1199.16C1150.08 -1219.76 1199.58 -1219.19 1234.24 -1194.7Z" stroke="#1B998B" stroke-width="2"/>
</svg>
