<svg width="627" height="807" viewBox="0 0 627 807" fill="none" xmlns="http://www.w3.org/2000/svg">
<path d="M1621.95 -1414.34C1667.8 -1381.94 1690.34 -1320.6 1691.38 -1236.77C1692.42 -1152.98 1671.96 -1047.13 1632.27 -926.324C1552.89 -684.732 1396.71 -383.717 1182.51 -80.5869C968.319 222.543 736.744 470.283 535.533 625.789C434.919 703.549 341.976 758.184 262.657 785.185C183.292 812.201 117.939 811.439 72.0879 779.04C26.2368 746.641 3.69277 685.294 2.65347 601.464C1.61476 517.682 22.0737 411.829 61.7676 291.023C141.149 49.4311 297.328 -251.584 511.522 -554.714C725.716 -857.844 957.291 -1105.58 1158.5 -1261.09C1259.12 -1338.85 1352.06 -1393.48 1431.38 -1420.49C1510.74 -1447.5 1576.1 -1446.74 1621.95 -1414.34Z" stroke="#1B998B" stroke-width="2"/>
</svg>
