<svg width="601" height="767" viewBox="0 0 601 767" fill="none" xmlns="http://www.w3.org/2000/svg">
<path d="M1573.62 -1387.7C1618.04 -1356.31 1639.87 -1296.83 1640.84 -1215.53C1641.81 -1134.27 1621.93 -1031.6 1583.38 -914.408C1506.31 -680.047 1354.74 -388.011 1146.91 -93.8969C939.09 200.217 714.44 440.613 519.275 591.533C421.683 667 331.544 720.031 254.629 746.254C177.669 772.493 114.322 771.777 69.899 740.388C25.4761 708.998 3.64617 649.527 2.67648 568.223C1.70735 486.966 21.591 384.292 60.1332 267.1C137.211 32.7387 288.78 -259.297 496.604 -553.411C704.427 -847.525 929.078 -1087.92 1124.24 -1238.84C1221.83 -1314.31 1311.97 -1367.34 1388.89 -1393.56C1465.85 -1419.8 1529.2 -1419.08 1573.62 -1387.7Z" stroke="#1B998B" stroke-width="2"/>
</svg>
