<svg width="704" height="922" viewBox="0 0 704 922" fill="none" xmlns="http://www.w3.org/2000/svg">
<path d="M1767.68 -1499.58C1817.63 -1464.28 1842.12 -1397.41 1843.17 -1306.05C1844.22 -1214.75 1821.83 -1099.39 1778.49 -967.72C1691.82 -704.41 1521.47 -376.288 1287.95 -45.8097C1054.43 284.668 802.04 554.819 582.792 724.451C473.16 809.274 371.894 868.9 285.482 898.403C199.024 927.921 127.809 927.169 77.8598 891.875C27.9109 856.581 3.4192 789.705 2.36914 698.353C1.31964 607.049 23.704 491.685 67.0438 360.019C153.716 96.7093 324.068 -231.413 557.586 -561.891C791.104 -892.369 1043.5 -1162.52 1262.75 -1332.15C1372.38 -1416.97 1473.64 -1476.6 1560.06 -1506.1C1646.51 -1535.62 1717.73 -1534.87 1767.68 -1499.58Z" stroke="#1B998B" stroke-width="2"/>
</svg>
