<svg width="728" height="959" viewBox="0 0 728 959" fill="none" xmlns="http://www.w3.org/2000/svg">
<path d="M1814 -1526.22C1865.38 -1489.92 1890.61 -1421.2 1891.77 -1327.37C1892.92 -1233.6 1870.02 -1115.14 1825.6 -979.954C1736.76 -709.611 1561.99 -372.781 1322.32 -33.5883C1082.64 305.605 823.515 582.828 598.361 756.849C485.776 843.866 381.764 905.016 292.986 935.241C204.163 965.483 130.962 964.654 79.5848 928.35C28.2072 892.046 2.98026 823.325 1.82177 729.503C0.663882 635.728 23.5672 517.266 67.9892 382.084C156.826 111.74 331.595 -225.09 571.272 -564.283C810.948 -903.475 1070.07 -1180.7 1295.23 -1354.72C1407.81 -1441.74 1511.83 -1502.89 1600.6 -1533.11C1689.43 -1563.35 1762.63 -1562.53 1814 -1526.22Z" stroke="#1B998B" stroke-width="2"/>
</svg>
