<svg width="548" height="689" viewBox="0 0 548 689" fill="none" xmlns="http://www.w3.org/2000/svg">
<path d="M1476.96 -1333.7C1518.57 -1304.29 1539.02 -1248.54 1539.89 -1172.26C1540.76 -1096.03 1522.06 -999.683 1485.85 -889.7C1413.44 -669.757 1271.13 -395.655 1076.05 -119.572C880.966 156.511 670.128 382.192 486.994 523.897C395.419 594.756 310.85 644.555 238.704 669.194C166.512 693.848 107.133 693.196 65.5205 663.792C23.9078 634.388 3.46252 578.636 2.59221 502.356C1.72244 426.123 20.4198 329.779 56.6282 219.797C129.038 -0.146486 271.35 -274.248 466.433 -550.331C661.515 -826.414 872.353 -1052.1 1055.49 -1193.8C1147.06 -1264.66 1231.63 -1314.46 1303.78 -1339.1C1375.97 -1363.75 1435.35 -1363.1 1476.96 -1333.7Z" stroke="#1B998B" stroke-width="2"/>
</svg>
