<svg width="574" height="729" viewBox="0 0 574 729" fill="none" xmlns="http://www.w3.org/2000/svg">
<path d="M1525.29 -1360.34C1568.33 -1329.93 1589.49 -1272.3 1590.43 -1193.5C1591.37 -1114.74 1572.1 -1015.21 1534.74 -901.618C1460.02 -674.444 1313.1 -391.362 1111.65 -106.263C910.195 178.835 692.432 411.86 503.252 558.151C408.654 631.304 321.282 682.706 246.732 708.123C172.136 733.555 110.751 732.856 67.7095 702.443C24.6684 672.03 3.5091 614.402 2.5692 535.596C1.62987 456.838 20.9024 357.316 58.2627 243.718C132.976 16.5446 279.898 -266.537 481.351 -551.636C682.804 -836.734 900.567 -1069.76 1089.75 -1216.05C1184.35 -1289.2 1271.72 -1340.61 1346.27 -1366.02C1420.86 -1391.45 1482.25 -1390.76 1525.29 -1360.34Z" stroke="#1B998B" stroke-width="2"/>
</svg>
