<svg width="444" height="535" viewBox="0 0 444 535" fill="none" xmlns="http://www.w3.org/2000/svg">
<path d="M1281.91 -1221.82C1317.99 -1196.32 1335.78 -1147.97 1336.57 -1081.74C1337.35 -1015.55 1321.16 -931.9 1289.75 -836.392C1226.93 -645.397 1103.4 -407.382 934.015 -167.663C764.627 72.0564 581.532 267.982 422.48 390.975C342.946 452.479 269.503 495.683 206.854 517.042C144.161 538.416 92.6495 537.8 56.5627 512.301C20.4759 486.802 2.69246 438.454 1.90252 372.221C1.11314 306.036 17.3098 222.382 48.7207 126.874C111.536 -64.1208 235.066 -302.136 404.453 -541.855C573.841 -781.575 756.937 -977.5 915.988 -1100.49C995.523 -1162 1068.97 -1205.2 1131.61 -1226.56C1194.31 -1247.93 1245.82 -1247.32 1281.91 -1221.82Z" stroke="#1B998B" stroke-width="2"/>
</svg>
