<svg width="391" height="457" viewBox="0 0 391 457" fill="none" xmlns="http://www.w3.org/2000/svg">
<path d="M1184.04 -1165.41C1217.37 -1141.86 1233.83 -1097.23 1234.6 -1036.05C1235.37 -974.913 1220.45 -897.644 1191.47 -809.422C1133.52 -633 1019.48 -413.165 863.047 -191.778C706.613 29.6095 537.485 210.521 390.545 324.06C317.066 380.836 249.214 420.703 191.334 440.395C133.409 460.102 85.8423 459.489 52.5179 435.942C19.1935 412.395 2.73064 367.763 1.96151 306.583C1.19299 245.449 16.1111 168.179 45.0885 79.9581C103.036 -96.4638 217.079 -316.299 373.513 -537.686C529.947 -759.074 699.075 -939.985 846.016 -1053.52C919.495 -1110.3 987.346 -1150.17 1045.23 -1169.86C1103.15 -1189.57 1150.72 -1188.95 1184.04 -1165.41Z" stroke="#1B998B" stroke-width="2"/>
</svg>
