<svg width="651" height="843" viewBox="0 0 651 843" fill="none" xmlns="http://www.w3.org/2000/svg">
<path d="M1669.15 -1443.63C1716.33 -1410.29 1739.5 -1347.13 1740.53 -1260.83C1741.56 -1174.58 1720.46 -1065.6 1679.55 -941.221C1597.74 -692.484 1436.88 -382.541 1216.31 -70.3956C995.75 241.75 757.324 496.888 550.188 657.065C446.611 737.16 350.936 793.449 269.292 821.285C187.603 849.136 120.332 848.387 73.146 815.045C25.9599 781.703 2.78849 718.544 1.75921 632.244C0.730485 545.991 21.8364 437.012 62.7426 312.633C144.548 63.8952 305.412 -246.047 525.977 -558.193C746.542 -870.339 984.967 -1125.48 1192.1 -1285.65C1295.68 -1365.75 1391.36 -1422.04 1473 -1449.87C1554.69 -1477.72 1621.96 -1476.98 1669.15 -1443.63Z" stroke="#1B998B" stroke-width="2"/>
</svg>
