<svg width="32" height="29" viewBox="0 0 32 29" fill="none" xmlns="http://www.w3.org/2000/svg">
<path d="M30.6834 0.000700063C30.3512 0.013165 30.0359 0.188001 29.8043 0.488168L10.2485 25.1131L2.20138 14.9801C2.08355 14.8256 1.94242 14.7022 1.78625 14.6172C1.63008 14.5322 1.46201 14.4873 1.29188 14.4851C1.12176 14.4829 0.952998 14.5235 0.795486 14.6045C0.637974 14.6855 0.494876 14.8052 0.374573 14.9567C0.25427 15.1082 0.159181 15.2884 0.0948743 15.4867C0.0305673 15.6851 -0.00166468 15.8976 6.61897e-05 16.1118C0.00179706 16.326 0.037456 16.5377 0.104954 16.7343C0.172453 16.931 0.270434 17.1087 0.393159 17.2571L9.34437 28.5286C9.58419 28.8304 9.9094 29 10.2485 29C10.5876 29 10.9128 28.8304 11.1526 28.5286L31.6125 2.76511C31.7973 2.53894 31.9235 2.24775 31.9746 1.9297C32.0257 1.61165 31.9993 1.28158 31.8989 0.982745C31.7984 0.683912 31.6287 0.430256 31.4118 0.255017C31.1949 0.0797793 30.941 -0.0088652 30.6834 0.000700063Z" fill="#1B998B"/>
</svg>
