<svg width="18" height="13" viewBox="0 0 18 13" fill="none" xmlns="http://www.w3.org/2000/svg">
<path d="M5.7713 9.36154L15.296 0.416909C15.5919 0.138969 15.9686 0 16.426 0C16.8834 0 17.2601 0.138969 17.5561 0.416909C17.852 0.69485 18 1.04859 18 1.47814C18 1.90768 17.852 2.26142 17.5561 2.53936L6.90132 12.5452C6.57846 12.8484 6.20178 13 5.7713 13C5.3408 13 4.96412 12.8484 4.64126 12.5452L0.443945 8.60352C0.147982 8.32555 0 7.97184 0 7.54224C0 7.11271 0.147982 6.759 0.443945 6.48103C0.739908 6.20313 1.11659 6.06415 1.57399 6.06415C2.03139 6.06415 2.40807 6.20313 2.70404 6.48103L5.7713 9.36154Z" fill="#1B998B"/>
</svg>
