<svg width="35" height="35" viewBox="0 0 35 35" fill="none" xmlns="http://www.w3.org/2000/svg">
<path d="M29.1562 4.98311C25.9489 1.7682 21.6777 0 17.1385 0C7.76936 0 0.145436 7.62392 0.145436 16.9931C0.145436 19.986 0.9262 22.91 2.41118 25.4896L0 34.2924L9.0094 31.9271C11.4895 33.282 14.2834 33.9938 17.1309 33.9938H17.1385C26.5 33.9938 34.2924 26.3699 34.2924 17.0007C34.2924 12.4616 32.3634 8.19802 29.1562 4.98311ZM17.1385 31.131C14.5972 31.131 12.1095 30.4498 9.94325 29.1638L9.4304 28.8576L4.08753 30.2584L5.51127 25.0457L5.17447 24.5098C3.75838 22.2594 3.01589 19.6645 3.01589 16.9931C3.01589 9.20842 9.35385 2.87045 17.1462 2.87045C20.9199 2.87045 24.4639 4.34013 27.1277 7.01156C29.7915 9.683 31.4296 13.227 31.4219 17.0007C31.4219 24.7931 24.9232 31.131 17.1385 31.131ZM24.8849 20.5524C24.4639 20.3381 22.3742 19.3124 21.9838 19.1746C21.5935 19.0292 21.3102 18.9603 21.027 19.389C20.7438 19.8176 19.9324 20.7668 19.6798 21.0576C19.4349 21.3409 19.1823 21.3791 18.7613 21.1648C16.2659 19.9171 14.6278 18.9373 12.9821 16.1128C12.5458 15.3627 13.4184 15.4162 14.2298 13.7935C14.3676 13.5103 14.2987 13.2653 14.1915 13.051C14.0844 12.8367 13.2347 10.747 12.8826 9.89732C12.5381 9.07063 12.186 9.18545 11.9258 9.17014C11.6808 9.15483 11.3976 9.15483 11.1144 9.15483C10.8312 9.15483 10.3719 9.262 9.98152 9.683C9.59114 10.1117 8.49654 11.1374 8.49654 13.227C8.49654 15.3167 10.0198 17.3375 10.2265 17.6208C10.4408 17.904 13.2194 22.1905 17.483 24.0353C20.1774 25.1988 21.2337 25.2983 22.5809 25.0992C23.3999 24.9768 25.0916 24.0735 25.4437 23.0784C25.7958 22.0834 25.7958 21.2337 25.6886 21.0576C25.5891 20.8663 25.3059 20.7591 24.8849 20.5524Z" fill="white"/>
</svg>
