<svg width="1920" height="3497" viewBox="0 0 1920 3497" fill="none" xmlns="http://www.w3.org/2000/svg">
<path d="M2859.7 2320.82C2860.02 2321.17 2859.65 2321.87 2859.3 2322.18C2858.95 2322.5 2858.27 2322.13 2857.94 2321.78L2859.7 2320.82ZM718.728 3495.39C718.747 3495.61 718.467 3496.58 718.333 3496.75C718.548 3496.72 718.198 3496.92 718.333 3496.75C718.117 3496.78 717.155 3496.48 716.975 3496.36C717.023 3496.57 716.794 3496.23 716.975 3496.36L718.728 3495.39ZM2836.61 2278.74C2836.69 2278.82 2836.57 2278.63 2836.61 2278.74C2836.61 2278.62 2836.65 2278.84 2836.61 2278.74C2836.6 2278.85 2837.14 2279.51 2837.09 2279.61C2837.04 2279.71 2836.3 2280.02 2836.21 2280.09C2835.87 2280.42 2835.18 2280.05 2834.85 2279.7L2836.61 2278.74ZM2813.52 2236.65C2813.53 2236.44 2813.66 2236.82 2813.52 2236.65C2813.51 2236.87 2813.28 2237.86 2813.13 2238.01C2813.34 2238.01 2812.97 2238.16 2813.13 2238.01C2812.91 2238.01 2811.93 2237.76 2811.77 2237.62L2813.52 2236.65ZM2790.43 2194.57C2790.76 2194.92 2790.38 2195.6 2790.04 2195.93C2789.69 2196.25 2789.01 2195.88 2788.68 2195.53L2790.43 2194.57ZM2767.35 2152.49C2767.67 2152.82 2767.29 2153.52 2766.95 2153.85C2766.62 2154.19 2765.93 2153.8 2765.59 2153.45L2767.35 2152.49ZM2743.78 2109.53C2744.1 2109.86 2743.72 2110.56 2743.38 2110.89C2743.05 2111.23 2742.84 2111.71 2742.51 2111.37L2743.78 2109.53ZM2720.69 2067.45C2720.83 2067.61 2721.18 2068.11 2721.17 2068.32C2721.16 2068.54 2720.45 2068.65 2720.29 2068.8C2720.51 2068.79 2720.14 2068.96 2720.29 2068.8C2720.08 2068.81 2719.58 2069.42 2719.42 2069.28L2720.69 2067.45ZM2697.6 2025.36C2697.93 2025.69 2697.54 2026.38 2697.21 2026.72C2696.87 2027.06 2696.67 2027.54 2696.33 2027.2L2697.6 2025.36ZM2674.52 1983.28C2674.6 1983.36 2674.47 1983.17 2674.52 1983.28C2674.57 1983.39 2674.99 1984.04 2675 1984.16C2675.04 1984.05 2675 1984.27 2675 1984.16C2674.95 1984.27 2674.2 1984.55 2674.12 1984.64C2674.23 1984.59 2674.04 1984.72 2674.12 1984.64C2674.24 1984.64 2674.01 1984.68 2674.12 1984.64C2674 1984.63 2673.35 1985.17 2673.24 1985.12C2673.32 1985.21 2673.14 1985.07 2673.24 1985.12L2674.52 1983.28ZM2651.43 1941.2C2651.77 1941.54 2651.36 1942.22 2651.03 1942.55C2650.7 1942.89 2650.49 1943.36 2650.16 1943.04L2651.43 1941.2ZM510.941 3116.65C510.947 3116.76 510.103 3117.02 510.065 3117.13C510.141 3117.04 510.026 3117.23 510.065 3117.13C510.167 3117.08 509.989 3117.21 510.065 3117.13C510.178 3117.12 509.962 3117.18 510.065 3117.13C509.952 3117.13 509.294 3117.65 509.188 3117.61C509.272 3117.69 509.082 3117.57 509.188 3117.61C509.104 3117.53 508.755 3116.83 508.707 3116.73C508.659 3116.63 508.712 3116.85 508.707 3116.73L510.941 3116.65ZM2628.34 1899.11C2628.68 1899.44 2628.27 1900.12 2627.94 1900.47C2627.61 1900.81 2626.93 1900.4 2626.59 1900.08L2628.34 1899.11ZM487.854 3074.56C487.857 3075.03 486.576 3075.5 486.101 3075.53C485.872 3075.53 485.786 3074.81 485.62 3074.65C485.453 3074.49 485.633 3074.88 485.62 3074.65L487.854 3074.56ZM2605.25 1857.03C2605.6 1857.35 2605.18 1858.04 2604.86 1858.39C2604.53 1858.73 2603.85 1858.33 2603.5 1857.99L2605.25 1857.03ZM464.286 3031.6C464.296 3032.09 463.482 3033.44 463.013 3033.44C463.118 3033.48 462.901 3033.45 463.013 3033.44C462.908 3033.4 462.613 3032.64 462.532 3032.57C462.576 3032.67 462.451 3032.49 462.532 3032.57C462.488 3032.46 462.533 3032.68 462.532 3032.57L464.286 3031.6ZM2582.17 1814.95C2582.52 1815.28 2582.1 1815.97 2581.77 1816.31C2581.45 1816.66 2580.76 1816.23 2580.41 1815.91L2582.17 1814.95ZM441.198 2989.52C441.186 2990 440.394 2991.36 439.926 2991.36C439.449 2991.35 439.447 2990.95 439.445 2990.48L441.198 2989.52ZM2559.08 1772.87C2559.43 1773.18 2559 1773.87 2558.68 1774.22C2558.36 1774.57 2557.67 1774.15 2557.32 1773.83L2559.08 1772.87ZM418.111 2947.44C418.113 2947.91 417.315 2949.29 416.838 2949.28C416.37 2949.28 415.864 2948 415.876 2947.52L418.111 2947.44ZM2535.99 1730.78C2536.34 1731.1 2535.91 1731.79 2535.59 1732.14C2535.28 1732.49 2534.6 1732.08 2534.24 1731.74L2535.99 1730.78ZM395.023 2905.36C395.002 2905.82 394.228 2907.21 393.751 2907.19C393.289 2907.17 392.776 2905.92 392.789 2905.44L395.023 2905.36ZM2512.42 1687.82C2512.51 1687.9 2512.85 1688.6 2512.9 1688.7C2512.89 1688.59 2512.96 1688.8 2512.9 1688.7C2512.94 1688.59 2512.91 1688.81 2512.9 1688.7C2512.87 1688.81 2512.58 1689.97 2512.51 1690.06C2512.61 1690.01 2512.43 1690.14 2512.51 1690.06C2512.62 1690.05 2512.4 1690.11 2512.51 1690.06C2512.39 1690.06 2511.26 1689.7 2511.15 1689.66C2511.23 1689.74 2511.04 1689.62 2511.15 1689.66L2512.42 1687.82ZM371.936 2863.27C371.92 2863.5 371.712 2864.48 371.54 2864.63C371.369 2864.78 370.409 2864.25 370.182 2864.23C370.332 2864.41 369.955 2864.22 370.182 2864.23C370.033 2864.06 369.686 2863.59 369.701 2863.36L371.936 2863.27ZM2489.33 1645.74C2489.69 1646.05 2489.25 1646.73 2488.94 1647.1C2488.62 1647.45 2488.42 1647.89 2488.06 1647.58L2489.33 1645.74ZM348.848 2821.19C348.797 2821.67 347.565 2822.19 347.095 2822.15C346.616 2822.1 346.578 2821.75 346.614 2821.28L348.848 2821.19ZM2466.25 1603.66C2466.61 1603.97 2466.16 1604.65 2465.85 1605.01C2465.55 1605.38 2465.34 1605.81 2464.97 1605.5L2466.25 1603.66ZM325.761 2779.11C325.702 2779.57 324.486 2780.12 324.007 2780.07C323.544 2780.01 323.475 2779.67 323.526 2779.19L325.761 2779.11ZM2443.16 1561.57C2443.52 1561.87 2443.06 1562.55 2442.76 1562.93C2442.46 1563.29 2442.25 1563.72 2441.89 1563.41L2443.16 1561.57ZM302.673 2737.02C302.614 2737.49 301.392 2738.06 300.92 2737.99C300.457 2737.93 300.365 2737.58 300.439 2737.11L302.673 2737.02ZM2420.07 1519.49C2420.44 1519.8 2419.98 1520.49 2419.68 1520.85C2419.38 1521.23 2419.16 1521.62 2418.8 1521.33L2420.07 1519.49ZM279.586 2694.94C279.512 2695.41 278.304 2695.98 277.833 2695.9C277.361 2695.83 277.277 2695.5 277.352 2695.03L279.586 2694.94ZM2396.98 1477.41C2397.16 1477.55 2397.44 1478.06 2397.47 1478.28C2397.49 1478.51 2396.73 1478.59 2396.59 1478.77C2396.81 1478.74 2396.45 1478.94 2396.59 1478.77C2396.37 1478.79 2395.89 1479.38 2395.71 1479.25L2396.98 1477.41ZM256.499 2652.86C256.44 2653.07 255.807 2653.23 255.622 2653.34C255.436 2653.45 254.958 2653.86 254.745 2653.82C254.532 2653.78 254.39 2653.12 254.264 2652.94C254.138 2652.77 254.236 2653.16 254.264 2652.94L256.499 2652.86ZM2373.9 1435.33C2373.99 1435.39 2373.84 1435.23 2373.9 1435.33C2373.88 1435.21 2373.96 1435.42 2373.9 1435.33C2373.91 1435.44 2374.41 1436.09 2374.38 1436.2C2374.35 1436.31 2373.57 1436.59 2373.5 1436.68C2373.6 1436.63 2373.43 1436.77 2373.5 1436.68C2373.62 1436.67 2373.4 1436.74 2373.5 1436.68C2373.61 1436.72 2373.39 1436.7 2373.5 1436.68C2373.39 1436.65 2372.23 1436.36 2372.14 1436.29L2373.9 1435.33ZM233.411 2610.78C233.31 2611.23 232.127 2611.84 231.658 2611.74C231.437 2611.68 231.295 2611.06 231.177 2610.86C231.059 2610.67 231.123 2611.08 231.177 2610.86L233.411 2610.78ZM2350.81 1393.24C2350.91 1393.31 2350.75 1393.14 2350.81 1393.24C2350.79 1393.13 2350.87 1393.34 2350.81 1393.24C2350.83 1393.36 2351.32 1394.01 2351.29 1394.12C2351.26 1394.23 2350.48 1394.51 2350.41 1394.6C2350.51 1394.54 2350.34 1394.69 2350.41 1394.6C2350.53 1394.59 2350.31 1394.66 2350.41 1394.6C2350.53 1394.63 2350.3 1394.61 2350.41 1394.6C2350.3 1394.57 2349.15 1394.28 2349.06 1394.2L2350.81 1393.24ZM210.324 2568.69C210.294 2568.8 209.516 2569.08 209.447 2569.17C209.545 2569.12 209.378 2569.26 209.447 2569.17C209.559 2569.16 209.349 2569.23 209.447 2569.17C209.335 2569.19 208.679 2569.68 208.57 2569.65C208.461 2569.62 208.179 2568.85 208.089 2568.78C208.145 2568.88 208 2568.71 208.089 2568.78C208.033 2568.68 208.103 2568.89 208.089 2568.78C208.075 2568.67 207.578 2568.01 207.608 2567.9L210.324 2568.69ZM2327.72 1351.16C2327.81 1351.23 2327.66 1351.06 2327.72 1351.16C2327.71 1351.05 2327.78 1351.26 2327.72 1351.16C2327.74 1351.27 2328.23 1351.93 2328.2 1352.04C2328.18 1352.15 2327.39 1352.43 2327.33 1352.52C2327.42 1352.46 2327.26 1352.61 2327.33 1352.52C2327.44 1352.5 2327.23 1352.58 2327.33 1352.52C2327.44 1352.54 2327.22 1352.53 2327.33 1352.52C2327.22 1352.49 2326.06 1352.19 2325.97 1352.12L2327.72 1351.16ZM186.36 2527.09C186.215 2527.54 185.934 2527.72 185.483 2527.57C185.376 2527.54 185.088 2526.77 185.002 2526.7C185.053 2526.8 184.916 2526.62 185.002 2526.7C184.95 2526.59 185.011 2526.81 185.002 2526.7C184.993 2526.58 184.486 2525.93 184.521 2525.82L186.36 2527.09ZM2304.15 1308.2C2304.33 1308.34 2304.6 1308.86 2304.64 1309.08C2304.67 1309.3 2304.37 1310.25 2304.24 1310.43C2304.46 1310.39 2304.11 1310.61 2304.24 1310.43C2304.02 1310.48 2303.07 1310.16 2302.88 1310.04L2304.15 1308.2ZM162.791 2484.13C162.625 2484.58 162.357 2484.78 161.914 2484.61C162.009 2484.82 161.701 2484.53 161.914 2484.61C161.819 2484.41 161.355 2483.95 161.433 2483.74L162.791 2484.13ZM2281.07 1266.12C2281.25 1266.25 2281.51 1266.77 2281.55 1266.99C2281.59 1267.22 2281.28 1268.17 2281.15 1268.35C2281.37 1268.31 2281.02 1268.54 2281.15 1268.35C2280.93 1268.39 2279.98 1268.08 2279.79 1267.96L2281.07 1266.12ZM139.704 2442.05C139.514 2442.49 139.262 2442.72 138.827 2442.53C138.907 2442.61 138.723 2442.49 138.827 2442.53C138.87 2442.63 138.747 2442.45 138.827 2442.53C138.784 2442.42 138.345 2441.77 138.346 2441.65C138.347 2441.54 138.302 2441.76 138.346 2441.65L139.704 2442.05ZM2257.98 1224.03C2258.17 1224.16 2258.42 1224.69 2258.46 1224.91C2258.59 1224.72 2258.5 1225.13 2258.46 1224.91C2258.33 1225.1 2257.81 1225.35 2257.58 1225.39C2257.36 1225.44 2256.9 1226 2256.71 1225.87L2257.98 1224.03ZM116.616 2399.97C116.402 2400.4 116.166 2400.65 115.74 2400.45C115.813 2400.66 115.536 2400.34 115.74 2400.45C115.666 2400.23 115.161 2399.77 115.259 2399.57L116.616 2399.97ZM2234.89 1181.95C2234.99 1182.01 2234.83 1181.86 2234.89 1181.95C2234.96 1182.04 2235.35 1182.72 2235.37 1182.83C2235.39 1182.72 2235.4 1182.94 2235.37 1182.83C2235.43 1182.73 2235.35 1182.94 2235.37 1182.83C2235.31 1182.92 2234.59 1183.24 2234.5 1183.31C2234.61 1183.29 2234.4 1183.37 2234.5 1183.31C2234.61 1183.33 2234.39 1183.33 2234.5 1183.31C2234.38 1183.29 2233.71 1183.85 2233.62 1183.79L2234.89 1181.95ZM93.5288 2357.88C93.2898 2358.3 93.0713 2358.59 92.6521 2358.36C92.7229 2358.45 92.5531 2358.31 92.6521 2358.36C92.5813 2358.28 92.203 2357.59 92.1711 2357.49C92.1392 2357.38 92.1593 2357.6 92.1711 2357.49C92.1829 2357.37 92.1172 2357.59 92.1711 2357.49L93.5288 2357.88ZM2211.8 1139.87C2212 1139.99 2212.23 1140.52 2212.29 1140.75C2212.4 1140.55 2212.34 1140.97 2212.29 1140.75C2212.17 1140.94 2211.63 1141.17 2211.41 1141.23C2211.19 1141.28 2210.73 1141.83 2210.53 1141.71L2211.8 1139.87ZM70.4414 2315.8C70.1908 2316.2 69.9754 2316.53 69.5646 2316.28C69.3746 2316.16 69.1322 2315.63 69.0837 2315.4C69.0351 2315.18 68.9632 2315.6 69.0837 2315.4L70.4414 2315.8ZM2188.72 1097.79C2188.82 1097.84 2188.65 1097.7 2188.72 1097.79C2188.79 1097.88 2189.17 1098.55 2189.2 1098.66C2189.21 1098.55 2189.23 1098.77 2189.2 1098.66C2189.26 1098.56 2189.18 1098.78 2189.2 1098.66C2189.14 1098.76 2188.41 1099.08 2188.32 1099.14C2188.43 1099.12 2188.23 1099.21 2188.32 1099.14C2188.43 1099.16 2188.21 1099.17 2188.32 1099.14C2188.21 1099.13 2187.54 1099.68 2187.44 1099.62L2188.72 1097.79ZM47.3539 2273.72C47.0901 2274.09 46.8636 2274.47 46.4772 2274.2C46.3856 2274.13 46.0553 2273.42 45.9962 2273.32C45.9371 2273.22 46.0138 2273.43 45.9962 2273.32C45.9786 2273.21 45.9697 2273.43 45.9962 2273.32C46.0228 2273.21 46.8061 2272.93 46.8729 2272.84L47.3539 2273.72ZM2165.63 1055.7C2165.83 1055.81 2165.57 1055.48 2165.63 1055.7C2165.69 1055.92 2166.22 1056.38 2166.11 1056.58C2166 1056.78 2165.45 1057 2165.23 1057.06C2165.01 1057.12 2164.56 1057.65 2164.36 1057.54L2165.63 1055.7ZM24.2665 2231.63C23.9742 2231.99 23.7526 2232.42 23.3898 2232.11C23.301 2232.04 22.9629 2231.34 22.9088 2231.24C22.8547 2231.14 22.9195 2231.35 22.9088 2231.24C22.8981 2231.13 22.8744 2231.35 22.9088 2231.24C22.9431 2231.13 23.2305 2229.97 23.3045 2229.88L24.2665 2231.63ZM2142.54 1013.62C2142.64 1013.67 2142.47 1013.53 2142.54 1013.62C2142.62 1013.71 2142.51 1013.51 2142.54 1013.62C2142.58 1013.73 2143.03 1014.38 2143.02 1014.5C2143.08 1014.39 2143.01 1014.61 2143.02 1014.5C2142.97 1014.6 2142.24 1014.9 2142.15 1014.98C2142.26 1014.95 2142.06 1015.05 2142.15 1014.98C2142.26 1014.99 2142.04 1015.01 2142.15 1014.98C2142.03 1014.96 2141.37 1015.52 2141.27 1015.46L2142.54 1013.62ZM1.17905 2189.55C0.856143 2189.89 0.174951 2189.48 -0.178663 2189.16C-0.340153 2188.99 -0.174466 2189.38 -0.178663 2189.16C-0.182861 2188.93 0.0614272 2187.96 0.217075 2187.8L1.17905 2189.55ZM2119.45 971.537C2119.56 971.584 2119.38 971.452 2119.45 971.537C2119.53 971.622 2119.42 971.428 2119.45 971.537C2119.49 971.646 2119.94 972.298 2119.94 972.414C2119.99 972.31 2119.93 972.529 2119.94 972.414C2119.88 972.517 2119.15 972.82 2119.06 972.894C2119.17 972.86 2118.97 972.969 2119.06 972.894C2119.17 972.906 2118.95 972.929 2119.06 972.894C2118.94 972.883 2118.28 973.432 2118.18 973.375L2119.45 971.537ZM-21.9084 2147.47C-22.2611 2147.79 -22.9386 2147.42 -23.2661 2147.07C-23.4146 2146.9 -23.2772 2147.3 -23.2661 2147.07C-23.255 2146.85 -23.035 2145.87 -22.8704 2145.71L-21.9084 2147.47ZM2095.89 928.577C2096.09 928.674 2096.29 929.24 2096.37 929.454C2096.44 929.668 2096.94 930.124 2096.85 930.331C2096.75 930.537 2096.19 930.734 2095.97 930.812C2095.76 930.889 2094.82 930.513 2094.61 930.416L2095.89 928.577ZM-44.9958 2105.39C-45.3668 2105.67 -46.0678 2105.37 -46.3535 2104.99C-46.4238 2104.9 -46.3227 2105.1 -46.3535 2104.99C-46.3843 2104.88 -46.8478 2104.22 -46.8345 2104.11C-46.8213 2104 -46.8902 2104.21 -46.8345 2104.11C-46.7789 2104.01 -46.047 2103.7 -45.9578 2103.63L-44.9958 2105.39ZM2072.8 886.494C2072.91 886.536 2073.2 887.29 2073.28 887.371C2073.36 887.452 2073.24 887.264 2073.28 887.371C2073.28 887.256 2073.32 887.478 2073.28 887.371C2073.28 887.486 2073.81 888.142 2073.76 888.248C2073.71 888.354 2072.97 888.649 2072.88 888.729C2072.99 888.688 2072.8 888.808 2072.88 888.729C2073 888.734 2072.78 888.769 2072.88 888.729C2072.77 888.724 2071.63 888.383 2071.53 888.333L2072.8 886.494ZM-68.0833 2063.3C-67.9704 2063.28 -68.1772 2063.37 -68.0833 2063.3C-68.1962 2063.33 -68.8462 2063.8 -68.96 2063.78C-69.0738 2063.76 -69.3446 2062.97 -69.441 2062.91C-69.3774 2063 -69.5373 2062.84 -69.441 2062.91C-69.5046 2062.81 -69.4203 2063.02 -69.441 2062.91C-69.4616 2062.79 -69.9476 2062.14 -69.922 2062.03C-69.8964 2061.92 -69.9897 2062.12 -69.922 2062.03C-69.8542 2061.94 -69.1443 2061.61 -69.0452 2061.55L-68.0833 2063.3ZM2049.71 844.411C2049.92 844.496 2050.1 845.079 2050.19 845.288C2050.28 845.076 2050.28 845.497 2050.19 845.288C2050.11 845.5 2050.01 846.556 2049.8 846.646C2049.59 846.736 2048.65 846.335 2048.44 846.25L2049.71 844.411ZM-91.1707 2021.22C-91.3704 2021.33 -92.3097 2020.89 -92.5284 2020.82C-92.4189 2021.02 -92.7472 2020.76 -92.5284 2020.82C-92.638 2020.62 -93.0732 2020.17 -93.0094 2019.95C-92.9456 2019.73 -92.3324 2019.58 -92.1327 2019.47L-91.1707 2021.22ZM2026.62 802.328C2026.84 802.406 2027.01 802.999 2027.1 803.205C2027.18 802.991 2027.2 803.411 2027.1 803.205C2027.03 803.42 2026.92 804.466 2026.71 804.563C2026.5 804.66 2025.57 804.244 2025.35 804.167L2026.62 802.328ZM-114.258 1979.14C-114.362 1979.19 -115.5 1978.73 -115.616 1978.74C-115.507 1978.78 -115.732 1978.75 -115.616 1978.74C-115.531 1978.82 -115.725 1978.7 -115.616 1978.74C-115.568 1978.85 -115.701 1978.66 -115.616 1978.74C-115.663 1978.63 -116.095 1977.98 -116.097 1977.86C-116.099 1977.75 -116.14 1977.97 -116.097 1977.86C-116.054 1977.76 -115.302 1977.46 -115.22 1977.38C-115.138 1977.3 -115.328 1977.43 -115.22 1977.38L-114.258 1979.14ZM2003.54 760.246C2003.75 760.315 2003.91 760.92 2004.02 761.122C2004.09 760.905 2004.12 761.325 2004.02 761.122C2003.95 761.339 2003.34 761.499 2003.14 761.603C2002.94 761.707 2002.48 762.154 2002.26 762.084L2003.54 760.246ZM-137.827 1936.18C-137.932 1936.22 -138.591 1936.66 -138.703 1936.66C-138.602 1936.71 -138.816 1936.65 -138.703 1936.66C-138.629 1936.74 -138.805 1936.61 -138.703 1936.66C-138.778 1936.57 -139.148 1935.89 -139.184 1935.78C-139.224 1935.68 -139.189 1935.89 -139.184 1935.78C-139.18 1935.67 -139.232 1935.88 -139.184 1935.78C-139.137 1935.68 -138.391 1935.38 -138.308 1935.3C-138.224 1935.22 -138.414 1935.34 -138.308 1935.3L-137.827 1936.18ZM1980.45 718.163C1980.67 718.224 1980.34 717.964 1980.45 718.163C1980.56 718.361 1980.99 718.82 1980.93 719.039C1980.87 719.259 1980.25 719.408 1980.05 719.52C1980.27 719.582 1979.85 719.632 1980.05 719.52L1980.45 718.163ZM-160.914 1894.09C-161.134 1894.16 -161.591 1894.69 -161.791 1894.57C-161.991 1894.46 -162.207 1893.92 -162.272 1893.7C-162.332 1893.48 -162.383 1893.9 -162.272 1893.7C-162.16 1893.5 -161.613 1893.28 -161.395 1893.22L-160.914 1894.09ZM1957.36 676.08C1957.47 676.104 1957.27 676.014 1957.36 676.08C1957.45 676.145 1957.3 675.983 1957.36 676.08C1957.42 676.176 1957.82 676.844 1957.84 676.957C1957.87 676.846 1957.86 677.069 1957.84 676.957C1957.82 677.067 1957.03 677.345 1956.97 677.438C1957.06 677.378 1956.9 677.53 1956.97 677.438C1957.08 677.42 1956.87 677.497 1956.97 677.438C1957.08 677.465 1956.85 677.455 1956.97 677.438L1957.36 676.08ZM-184.001 1852.01C-184.225 1852.05 -184.689 1852.62 -184.878 1852.49C-185.068 1852.37 -185.312 1851.84 -185.359 1851.62C-185.401 1851.39 -185.486 1851.8 -185.359 1851.62C-185.233 1851.43 -184.706 1851.18 -184.482 1851.13L-184.001 1852.01ZM1934.27 633.997C1934.5 634.039 1934.15 633.809 1934.27 633.997C1934.4 634.185 1934.8 634.65 1934.76 634.874C1934.71 635.098 1934.07 635.226 1933.88 635.355C1934.1 635.396 1933.69 635.483 1933.88 635.355L1934.27 633.997ZM-207.089 1809.93C-207.315 1809.96 -207.783 1810.55 -207.966 1810.41C-208.148 1810.27 -208.415 1809.76 -208.447 1809.53C-208.476 1809.31 -207.709 1809.23 -207.57 1809.05C-207.43 1808.87 -207.796 1809.08 -207.57 1809.05L-207.089 1809.93ZM1911.19 591.914C1911.3 591.926 1911.09 591.858 1911.19 591.914C1911.29 591.97 1911.12 591.824 1911.19 591.914C1911.26 592.004 1911.16 591.803 1911.19 591.914C1911.22 592.025 1911.68 592.677 1911.67 592.791C1911.73 592.692 1911.65 592.904 1911.67 592.791C1911.61 592.89 1910.88 593.203 1910.79 593.272C1910.9 593.245 1910.7 593.34 1910.79 593.272C1910.9 593.29 1910.68 593.299 1910.79 593.272L1911.19 591.914ZM-230.176 1767.85C-230.289 1767.85 -230.946 1768.36 -231.053 1768.33C-230.968 1768.4 -231.16 1768.29 -231.053 1768.33C-231.138 1768.25 -231.484 1767.55 -231.534 1767.45C-231.584 1767.35 -231.527 1767.56 -231.534 1767.45C-231.542 1767.34 -231.57 1767.56 -231.534 1767.45C-231.498 1767.34 -231.212 1766.18 -231.138 1766.09C-231.064 1766.01 -231.239 1766.14 -231.138 1766.09C-231.037 1766.04 -231.25 1766.1 -231.138 1766.09L-230.176 1767.85ZM1887.62 548.954C1887.73 548.964 1888 549.779 1888.1 549.831C1888.2 549.883 1888.03 549.745 1888.1 549.831C1888.17 549.917 1888.06 549.724 1888.1 549.831C1888.13 549.939 1888.59 550.595 1888.58 550.708C1888.63 550.608 1888.57 550.82 1888.58 550.708C1888.53 550.808 1887.79 551.116 1887.7 551.189C1887.81 551.154 1887.62 551.262 1887.7 551.189C1887.82 551.198 1887.6 551.223 1887.7 551.189L1887.62 548.954ZM-254.141 1726.24C-254.368 1726.24 -254.46 1725.53 -254.622 1725.37C-254.783 1725.21 -254.619 1725.59 -254.622 1725.37C-254.622 1725.25 -255.146 1724.59 -255.102 1724.49C-255.059 1724.39 -254.306 1724.09 -254.226 1724.01C-254.146 1723.93 -254.33 1724.05 -254.226 1724.01C-254.121 1723.97 -254.339 1724.01 -254.226 1724.01L-254.141 1726.24ZM1864.53 506.871C1864.64 506.874 1864.43 506.826 1864.53 506.871C1864.63 506.917 1864.93 507.666 1865.01 507.748C1865.09 507.83 1864.97 507.643 1865.01 507.748C1865.01 507.635 1865.05 507.854 1865.01 507.748C1865.01 507.861 1865.54 508.522 1865.49 508.625C1865.45 508.728 1864.7 509.028 1864.62 509.106C1864.72 509.065 1864.53 509.184 1864.62 509.106C1864.73 509.109 1864.51 509.146 1864.62 509.106L1864.53 506.871ZM-277.228 1684.16C-277.455 1684.14 -277.56 1683.46 -277.709 1683.28C-277.858 1683.11 -277.724 1683.51 -277.709 1683.28C-277.703 1683.17 -278.239 1682.51 -278.19 1682.41C-278.141 1682.31 -277.398 1682 -277.313 1681.93C-277.229 1681.85 -277.42 1681.96 -277.313 1681.93C-277.206 1681.89 -277.426 1681.92 -277.313 1681.93L-277.228 1684.16ZM1840.57 465.27C1840.79 465.261 1841.76 465.51 1841.92 465.665C1841.92 465.438 1842.09 465.821 1841.92 465.665C1841.93 465.893 1841.68 466.856 1841.53 467.023C1841.76 467.015 1841.37 467.19 1841.53 467.023L1840.57 465.27ZM-300.315 1642.08C-300.541 1642.05 -300.655 1641.38 -300.796 1641.2C-300.938 1641.02 -301.301 1640.55 -301.277 1640.32C-301.265 1640.21 -301.332 1640.42 -301.277 1640.32C-301.223 1640.23 -300.489 1639.91 -300.401 1639.84C-300.312 1639.77 -300.509 1639.87 -300.401 1639.84C-300.292 1639.81 -300.513 1639.83 -300.401 1639.84L-300.315 1642.08ZM1817.48 423.187C1817.59 423.171 1818.24 422.676 1818.36 422.706C1818.47 422.736 1818.75 423.511 1818.84 423.582C1818.93 423.654 1818.78 423.481 1818.84 423.582C1818.83 423.467 1818.89 423.684 1818.84 423.582C1818.87 423.472 1818.85 423.697 1818.84 423.582C1818.8 423.693 1818.52 424.852 1818.44 424.94C1818.54 424.888 1818.37 425.028 1818.44 424.94C1818.56 424.933 1818.34 424.992 1818.44 424.94L1817.48 423.187ZM-323.403 1599.99C-323.875 1599.92 -324.441 1598.71 -324.365 1598.24C-324.347 1598.13 -324.424 1598.34 -324.365 1598.24C-324.306 1598.15 -323.58 1597.83 -323.488 1597.76C-323.397 1597.69 -323.598 1597.79 -323.488 1597.76C-323.378 1597.73 -323.599 1597.74 -323.488 1597.76L-323.403 1599.99ZM1794.39 381.104C1794.62 381.065 1795.08 380.491 1795.27 380.623C1795.45 380.754 1795.71 381.275 1795.75 381.499C1795.79 381.724 1795.49 382.671 1795.35 382.857C1795.58 382.819 1795.22 383.043 1795.35 382.857L1794.39 381.104ZM-346.971 1557.04C-346.848 1557.23 -347.194 1556.99 -346.971 1557.04C-347.095 1556.84 -347.5 1556.38 -347.452 1556.16C-347.403 1555.93 -346.768 1555.8 -346.576 1555.68C-346.383 1555.55 -346.8 1555.63 -346.576 1555.68L-346.971 1557.04ZM1771.3 339.021C1771.41 338.994 1772.07 338.523 1772.18 338.54C1772.29 338.557 1772.08 338.481 1772.18 338.54C1772.28 338.599 1772.6 339.326 1772.66 339.417C1772.64 339.307 1772.73 339.508 1772.66 339.417C1772.68 339.305 1772.69 339.526 1772.66 339.417C1772.72 339.32 1772.64 339.528 1772.66 339.417C1772.6 339.513 1771.88 339.831 1771.79 339.898C1771.89 339.871 1771.69 339.964 1771.79 339.898L1771.3 339.021ZM-370.059 1514.95C-369.969 1515.02 -370.168 1514.92 -370.059 1514.95C-370.002 1515.05 -370.149 1514.88 -370.059 1514.95C-370.116 1514.85 -370.524 1514.19 -370.54 1514.08C-370.555 1513.96 -370.568 1514.18 -370.54 1514.08C-370.512 1513.97 -369.73 1513.68 -369.663 1513.59C-369.596 1513.5 -369.759 1513.65 -369.663 1513.59C-369.567 1513.54 -369.774 1513.61 -369.663 1513.59C-369.552 1513.58 -369.771 1513.57 -369.663 1513.59L-370.059 1514.95ZM1748.22 296.938C1748.33 296.899 1748.98 296.451 1749.09 296.457C1749.21 296.463 1748.99 296.406 1749.09 296.457C1749.2 296.508 1749.02 296.37 1749.09 296.457C1749.17 296.544 1749.54 297.224 1749.57 297.334C1749.58 297.219 1749.61 297.443 1749.57 297.334C1749.63 297.232 1749.56 297.448 1749.57 297.334C1749.52 297.435 1748.79 297.742 1748.7 297.815C1748.81 297.783 1748.61 297.887 1748.7 297.815L1748.22 296.938ZM-393.146 1472.87C-393.039 1473.07 -393.364 1472.8 -393.146 1472.87C-393.253 1472.67 -393.694 1472.21 -393.627 1471.99C-393.56 1471.77 -392.952 1471.62 -392.75 1471.51C-392.549 1471.4 -392.093 1470.97 -391.874 1471.03L-393.146 1472.87ZM1725.13 254.855C1725.34 254.768 1725.8 254.287 1726.01 254.374C1726.22 254.462 1726.4 255.04 1726.49 255.251C1726.57 255.04 1726.57 255.461 1726.49 255.251C1726.4 255.461 1725.82 255.645 1725.61 255.732L1725.13 254.855ZM-416.234 1430.79C-416.146 1430.86 -416.343 1430.75 -416.234 1430.79C-416.321 1430.71 -416.663 1430.01 -416.715 1429.91C-416.766 1429.81 -416.707 1430.02 -416.715 1429.91C-416.722 1429.79 -416.752 1430.02 -416.715 1429.91C-416.677 1429.8 -415.915 1429.51 -415.838 1429.43C-415.761 1429.34 -415.942 1429.48 -415.838 1429.43C-415.734 1429.38 -415.953 1429.43 -415.838 1429.43C-415.723 1429.42 -415.069 1428.91 -414.961 1428.95L-416.234 1430.79ZM1701.56 211.895C1701.66 211.844 1701.93 212.781 1702.04 212.772C1702.15 212.763 1702.81 212.256 1702.92 212.291C1703.14 212.362 1702.82 212.088 1702.92 212.291C1703.02 212.494 1703.47 212.951 1703.4 213.168C1703.33 213.385 1702.73 213.545 1702.52 213.649L1701.56 211.895ZM-439.321 1388.7C-439.526 1388.62 -439.715 1388.03 -439.802 1387.83C-439.889 1387.62 -439.881 1388.03 -439.802 1387.83C-439.723 1387.62 -439.127 1387.44 -438.925 1387.35C-438.724 1387.25 -438.259 1386.79 -438.049 1386.86L-439.321 1388.7ZM1678.47 169.813C1678.57 169.754 1678.36 169.83 1678.47 169.813C1678.58 169.795 1679.72 170.182 1679.83 170.208C1679.94 170.235 1679.74 170.142 1679.83 170.208C1679.92 170.275 1679.77 170.112 1679.83 170.208C1679.89 170.304 1680.29 170.974 1680.31 171.085C1680.34 170.975 1680.33 171.196 1680.31 171.085C1680.29 171.195 1679.5 171.475 1679.44 171.566C1679.53 171.507 1679.37 171.657 1679.44 171.566L1678.47 169.813ZM-462.408 1346.62C-462.513 1346.58 -462.81 1345.82 -462.889 1345.74C-462.847 1345.85 -462.969 1345.66 -462.889 1345.74C-462.932 1345.64 -462.89 1345.86 -462.889 1345.74C-462.889 1345.63 -462.933 1345.85 -462.889 1345.74C-462.846 1345.64 -462.574 1344.47 -462.494 1344.39C-462.414 1344.31 -462.598 1344.43 -462.494 1344.39C-462.39 1344.34 -462.125 1345.26 -462.013 1345.26C-461.9 1345.26 -461.24 1344.74 -461.136 1344.78L-462.408 1346.62ZM1655.39 127.73C1655.48 127.662 1655.28 127.757 1655.39 127.73C1655.5 127.703 1656.15 127.231 1656.26 127.249C1656.37 127.266 1656.65 128.066 1656.74 128.125C1656.84 128.184 1656.68 128.034 1656.74 128.125C1656.72 128.015 1656.81 128.217 1656.74 128.125C1656.77 128.236 1657.24 128.89 1657.22 129.002C1657.28 128.906 1657.21 129.114 1657.22 129.002C1657.17 129.098 1656.44 129.417 1656.35 129.483L1655.39 127.73ZM-485.496 1304.54C-485.703 1304.44 -485.897 1303.87 -485.977 1303.66C-486.057 1303.45 -486.552 1302.99 -486.458 1302.78C-486.364 1302.58 -485.794 1302.38 -485.581 1302.3C-485.368 1302.22 -484.431 1302.6 -484.223 1302.7L-485.496 1304.54ZM1632.3 85.6468C1632.38 85.5738 1632.19 85.6812 1632.3 85.6468C1632.41 85.6123 1633.06 85.1565 1633.18 85.1658C1633.29 85.1751 1633.56 85.9909 1633.66 86.0425C1633.76 86.0941 1633.58 85.9565 1633.66 86.0425C1633.73 86.1286 1633.62 85.9351 1633.66 86.0425C1633.69 86.1499 1634.15 86.8068 1634.14 86.9192C1634.19 86.8189 1634.13 87.0317 1634.14 86.9192C1634.09 87.0196 1633.35 87.3273 1633.26 87.4002L1632.3 85.6468ZM-508.583 1262.45C-508.787 1262.35 -508.99 1261.79 -509.064 1261.58C-509.138 1261.36 -509.643 1260.91 -509.545 1260.7C-509.445 1260.5 -508.885 1260.29 -508.669 1260.22C-508.452 1260.15 -507.517 1260.52 -507.311 1260.62L-508.583 1262.45ZM1609.21 43.5639C1609.37 43.4038 1609.86 43.0815 1610.09 43.0829C1610.32 43.0843 1610.41 43.7975 1610.57 43.9596C1610.57 43.7318 1610.73 44.1217 1610.57 43.9596C1610.57 44.1874 1610.34 45.1572 1610.17 45.3173L1609.21 43.5639ZM-532.152 1219.5C-532.084 1219.71 -532.355 1219.39 -532.152 1219.5C-532.22 1219.28 -532.74 1218.82 -532.633 1218.62C-532.526 1218.42 -531.975 1218.21 -531.756 1218.14C-531.537 1218.07 -531.083 1217.55 -530.879 1217.66L-532.152 1219.5ZM1586.12 1.48098C1586.2 1.39269 1586.02 1.53373 1586.12 1.48098C1586.23 1.42823 1586.01 1.48987 1586.12 1.48098C1586.24 1.47209 1586.89 0.963625 1587 0.999991C1587.11 1.03636 1587.4 1.80083 1587.48 1.87672C1587.57 1.95261 1587.43 1.77327 1587.48 1.87672C1587.48 1.76203 1587.53 1.98016 1587.48 1.87672C1587.49 1.99141 1588 2.6456 1587.96 2.75344C1587.92 2.86129 1587.16 3.15044 1587.09 3.23443L1586.12 1.48098ZM-555.239 1177.41C-555.175 1177.63 -555.439 1177.3 -555.239 1177.41C-555.304 1177.19 -555.829 1176.74 -555.72 1176.54C-555.61 1176.34 -555.062 1176.12 -554.843 1176.05C-554.625 1175.99 -554.166 1175.46 -553.967 1175.57L-555.239 1177.41ZM2857.94 2321.78C2290.94 1711.38 1836.44 1305.06 1493.43 1102.83C1321.92 1001.71 1178.33 951.444 1062.98 952.321C947.707 953.198 859.848 1005.14 800.385 1107.79L799.904 1106.91C859.66 1003.75 947.474 951.845 1063.37 950.964C1179.19 950.081 1322.22 1000.29 1493.83 1101.47C1837.06 1303.84 2292.67 1710.39 2859.7 2320.82L2857.94 2321.78ZM2834.85 2279.7C2275.56 1683.35 1826.81 1287.51 1487.66 1092.31C1318.08 994.703 1175.92 947.059 1061.53 949.691C947.225 952.321 859.851 1005.13 800.385 1107.79L799.904 1106.91C859.658 1003.76 946.997 950.976 1061.93 948.334C1176.78 945.693 1318.37 993.286 1488.06 1090.95C1827.44 1286.29 2277.29 1682.36 2836.61 2278.74L2834.85 2279.7ZM2811.77 2237.62C2260.18 1655.32 1817.18 1269.97 1481.89 1081.79C1314.24 987.697 1173.51 942.678 1060.09 947.061C946.744 951.444 859.854 1005.12 800.385 1107.79L799.904 1106.91C859.654 1003.76 946.521 950.108 1060.49 945.703C1174.38 941.301 1314.53 986.28 1482.29 1080.43C1817.81 1268.74 2261.92 1654.35 2813.52 2236.65L2811.77 2237.62ZM2788.68 2195.53C2244.8 1627.29 1807.55 1252.42 1476.12 1071.27C1310.4 980.691 1171.11 938.294 1058.65 944.431C946.262 950.565 859.858 1005.12 800.385 1107.79L799.904 1106.91C859.649 1003.77 946.045 949.24 1059.04 943.073C1171.97 936.911 1310.68 979.272 1476.51 1069.91C1808.19 1251.19 2246.54 1626.31 2790.43 2194.57L2788.68 2195.53ZM2765.59 2153.45C2229.43 1599.27 1797.92 1234.87 1470.35 1060.75C1306.56 973.685 1168.7 933.91 1057.21 941.801C945.78 949.686 859.861 1005.11 800.385 1107.79L799.904 1106.91C859.647 1003.78 945.569 948.372 1057.6 940.443C1169.56 932.519 1306.84 972.264 1470.74 1059.39C1798.57 1233.64 2231.16 1598.28 2767.35 2152.49L2765.59 2153.45ZM2742.51 2111.37C2214.05 1571.25 1788.29 1217.32 1464.57 1050.23C1302.72 966.679 1166.29 929.527 1055.76 939.171C945.296 948.809 859.866 1005.1 800.385 1107.79L799.904 1106.91C859.642 1003.78 945.094 947.503 1056.16 937.813C1167.16 928.128 1302.99 965.257 1464.97 1048.87C1788.94 1216.1 2215.3 1569.37 2743.78 2109.53L2742.51 2111.37ZM2719.42 2069.28C2198.68 1543.21 1778.65 1199.77 1458.8 1039.71C1298.87 959.672 1163.88 925.143 1054.32 936.54C944.815 947.931 859.869 1005.1 800.385 1107.79L799.904 1106.91C859.64 1003.79 944.617 946.635 1054.72 935.183C1164.75 923.737 1299.14 958.25 1459.2 1038.35C1779.31 1198.55 2199.93 1541.36 2720.69 2067.45L2719.42 2069.28ZM2696.33 2027.2C2183.3 1515.19 1769.02 1182.22 1453.03 1029.19C1295.03 952.666 1161.48 920.761 1052.88 933.91C944.331 947.053 859.873 1005.09 800.385 1107.79L799.904 1106.91C859.636 1003.8 944.143 945.766 1053.27 932.552C1162.34 919.345 1295.3 951.244 1453.43 1027.83C1769.69 1181 2184.55 1513.32 2697.6 2025.36L2696.33 2027.2ZM2673.24 1985.12C2167.93 1487.16 1759.39 1164.68 1447.26 1018.66C1291.19 945.66 1159.07 916.379 1051.43 931.28C943.848 946.175 859.876 1005.09 800.385 1107.79L799.904 1106.91C859.633 1003.8 943.668 944.897 1051.83 929.922C1159.94 914.954 1291.45 944.235 1447.65 1017.31C1760.07 1163.45 2169.17 1485.29 2674.52 1983.28L2673.24 1985.12ZM2650.16 1943.04C2152.55 1459.13 1749.76 1147.13 1441.49 1008.14C1287.35 938.652 1156.67 911.994 1049.99 928.65C943.364 945.298 859.879 1005.08 800.385 1107.79L799.904 1106.91C859.63 1003.81 943.193 944.028 1050.39 927.292C1157.53 910.563 1287.6 937.229 1441.88 1006.79C1750.45 1145.9 2153.8 1457.27 2651.43 1941.2L2650.16 1943.04ZM2626.59 1900.08C2136.69 1430.23 1740.13 1129.58 1435.72 997.623C1283.51 931.646 1154.26 907.612 1048.55 926.02C942.881 944.42 859.882 1005.08 800.385 1107.79L799.904 1106.91C859.626 1003.81 942.719 943.16 1048.94 924.662C1155.12 906.172 1283.75 930.223 1436.11 996.265C1740.82 1128.35 2138.42 1429.24 2628.34 1899.11L2626.59 1900.08ZM2603.5 1857.99C2121.32 1402.21 1730.5 1112.03 1429.94 987.102C1279.67 924.639 1151.85 903.228 1047.1 923.389C942.396 943.543 859.884 1005.07 800.385 1107.79L799.904 1106.91C859.623 1003.82 942.246 942.29 1047.5 922.032C1152.71 901.78 1279.91 923.214 1430.34 985.745C1731.2 1110.8 2123.04 1401.21 2605.25 1857.03L2603.5 1857.99ZM800.385 1107.79C562.064 1519.22 450.463 2160.2 464.286 3031.6L462.532 3032.57C448.696 2161.06 561.348 1518.75 799.904 1106.91L800.385 1107.79ZM2580.41 1815.91C2105.94 1374.17 1720.87 1094.48 1424.17 976.582C1275.83 917.632 1149.45 898.844 1045.66 920.759C941.912 942.665 859.889 1005.06 800.385 1107.79L799.904 1106.91C859.619 1003.82 941.772 941.423 1046.06 919.402C1150.3 897.392 1276.06 916.209 1424.57 975.224C1721.58 1093.25 2107.67 1373.19 2582.17 1814.95L2580.41 1815.91ZM800.385 1107.79C562.062 1519.23 442.784 2146.23 441.198 2989.52L439.445 2990.48C441.046 2147.08 561.353 1518.74 799.904 1106.91L800.385 1107.79ZM2557.32 1773.83C2090.57 1346.15 1711.23 1076.94 1418.4 966.061C1271.99 910.626 1147.04 894.462 1044.22 918.129C941.428 941.789 859.892 1005.06 800.385 1107.79L799.904 1106.91C859.616 1003.83 941.298 940.551 1044.61 916.771C1147.9 892.999 1272.21 909.202 1418.8 964.703C1711.95 1075.7 2092.29 1345.16 2559.08 1772.87L2557.32 1773.83ZM800.385 1107.79C562.056 1519.24 435.134 2132.25 418.111 2947.44L415.876 2947.52C432.884 2132.24 561.359 1518.73 799.904 1106.91L800.385 1107.79ZM2534.24 1731.74C2075.19 1318.13 1701.6 1059.39 1412.63 955.54C1268.15 903.618 1144.64 890.079 1042.78 915.499C940.94 940.911 859.894 1005.05 800.385 1107.79L799.904 1106.91C859.615 1003.83 939.95 940.163 1042.29 914.622C1144.61 889.089 1268.36 902.195 1413.02 954.183C1702.33 1058.15 2076.91 1317.12 2535.99 1730.78L2534.24 1731.74ZM800.385 1107.79C562.048 1519.25 427.454 2118.29 395.023 2905.36L392.789 2905.44C425.234 2118.26 561.366 1518.72 799.904 1106.91L800.385 1107.79ZM2511.15 1689.66C2059.82 1290.09 1691.97 1041.84 1406.86 945.02C1264.31 896.611 1142.24 885.695 1041.33 912.869C940.456 940.036 859.897 1005.05 800.385 1107.79L799.904 1106.91C859.612 1003.84 939.477 939.293 1040.85 911.992C1142.2 884.698 1264.52 895.189 1407.25 943.662C1692.71 1040.6 2061.05 1288.23 2512.42 1687.82L2511.15 1689.66ZM800.385 1107.79C562.042 1519.26 419.789 2104.32 371.936 2863.27L369.701 2863.36C417.569 2104.29 561.372 1518.71 799.904 1106.91L800.385 1107.79ZM2488.06 1647.58C2044.44 1262.07 1682.34 1024.3 1401.08 934.499C1260.47 889.603 1139.83 881.311 1039.89 910.239C939.971 939.159 859.9 1005.04 800.385 1107.79L799.904 1106.91C859.608 1003.84 939.003 938.423 1039.41 909.362C1139.79 880.308 1260.67 888.182 1401.48 933.141C1683.08 1023.05 2045.67 1260.19 2489.33 1645.74L2488.06 1647.58ZM800.385 1107.79C562.035 1519.27 412.125 2090.35 348.848 2821.19L346.614 2821.28C409.903 2090.32 561.379 1518.7 799.904 1106.91L800.385 1107.79ZM2464.97 1605.5C2029.06 1234.04 1672.71 1006.75 1395.31 923.978C1256.63 882.596 1137.43 876.927 1038.45 907.608C939.484 938.282 859.903 1005.04 800.385 1107.79L799.904 1106.91C859.605 1003.85 938.532 937.553 1037.97 906.732C1137.38 875.918 1256.82 881.177 1395.71 922.62C1673.46 1005.5 2030.3 1232.17 2466.25 1603.66L2464.97 1605.5ZM800.385 1107.79C562.028 1519.28 404.461 2076.38 325.761 2779.11L323.526 2779.19C402.238 2076.34 561.387 1518.69 799.904 1106.91L800.385 1107.79ZM2441.89 1563.41C2013.69 1206.02 1663.08 989.205 1389.54 913.457C1252.79 875.587 1135.03 872.543 1037 904.978C939 937.407 859.906 1005.03 800.385 1107.79L799.904 1106.91C859.603 1003.85 938.058 936.683 1036.52 904.101C1134.97 871.527 1252.97 874.172 1389.94 912.1C1663.84 987.95 2014.92 1204.14 2443.16 1561.57L2441.89 1563.41ZM800.385 1107.79C562.02 1519.3 396.796 2062.41 302.673 2737.02L300.439 2737.11C394.572 2062.37 561.394 1518.68 799.904 1106.91L800.385 1107.79ZM2418.8 1521.33C1998.31 1177.99 1653.44 971.66 1383.77 902.937C1248.94 868.579 1132.62 868.16 1035.56 902.348C938.513 936.533 859.908 1005.03 800.385 1107.79L799.904 1106.91C859.6 1003.86 937.587 935.81 1035.08 901.471C1132.56 867.136 1249.13 867.165 1384.16 901.579C1654.22 970.397 1999.54 1176.12 2420.07 1519.49L2418.8 1521.33ZM800.385 1107.79C562.014 1519.31 389.131 2048.44 279.586 2694.94L277.352 2695.03C386.906 2048.4 561.401 1518.66 799.904 1106.91L800.385 1107.79ZM2395.71 1479.25C1982.94 1149.96 1643.81 954.113 1378 892.416C1245.1 861.57 1130.22 863.774 1034.12 899.718C938.026 935.657 859.911 1005.03 800.385 1107.79L799.904 1106.91C859.598 1003.86 937.116 934.941 1033.64 898.841C1130.15 862.748 1245.28 860.161 1378.39 891.058C1644.59 952.847 1984.17 1148.09 2396.98 1477.41L2395.71 1479.25ZM800.385 1107.79C562.008 1519.32 381.465 2034.46 256.499 2652.86L254.264 2652.94C379.243 2034.43 561.408 1518.65 799.904 1106.91L800.385 1107.79ZM2372.14 1436.29C1967.08 1121.06 1634.18 936.569 1372.22 881.895C1241.26 854.562 1127.82 859.39 1032.67 897.088C937.54 934.782 859.914 1005.02 800.385 1107.79L799.904 1106.91C859.594 1003.87 936.644 934.069 1032.19 896.211C1127.73 858.357 1241.43 853.156 1372.62 880.538C1634.97 935.293 1968.79 1120.06 2373.9 1435.33L2372.14 1436.29ZM800.385 1107.79C561.999 1519.34 373.798 2020.49 233.411 2610.78L231.177 2610.86C371.579 2020.46 561.416 1518.64 799.904 1106.91L800.385 1107.79ZM2349.06 1394.2C1951.71 1093.03 1624.55 919.024 1366.45 871.375C1237.42 847.553 1125.42 855.007 1031.23 894.457C937.052 933.906 859.915 1005.02 800.385 1107.79L799.904 1106.91C859.592 1003.87 936.173 933.197 1030.75 893.581C1125.32 853.966 1237.58 846.151 1366.85 870.017C1625.35 917.74 1953.41 1092.03 2350.81 1393.24L2349.06 1394.2ZM800.385 1107.79C561.991 1519.35 366.115 2006.52 210.324 2568.69L207.608 2567.9C363.451 2005.61 561.424 1518.62 799.904 1106.91L800.385 1107.79ZM2325.97 1352.12C1936.34 1065.01 1614.91 901.48 1360.68 860.854C1233.58 840.543 1123.02 850.62 1029.79 891.827C936.566 933.032 859.919 1005.01 800.385 1107.79L799.904 1106.91C859.589 1003.87 935.701 932.325 1029.31 890.951C1122.91 849.578 1233.25 838.271 1360.6 858.619C1615.24 899.311 1938.03 1064 2327.72 1351.16L2325.97 1352.12ZM800.385 1107.79C561.981 1519.36 357.586 1993.02 186.36 2527.09L184.521 2525.82C355.774 1991.65 561.432 1518.61 799.904 1106.91L800.385 1107.79ZM2302.88 1310.04C1920.96 1036.98 1605.28 883.935 1354.91 850.333C1229.74 833.533 1120.62 846.235 1028.35 889.197C936.079 932.158 859.921 1005.01 800.385 1107.79L799.904 1106.91C859.587 1003.88 935.23 931.453 1027.86 888.32C1120.5 845.189 1229.41 831.266 1354.82 848.099C1605.62 881.758 1922.17 1035.1 2304.15 1308.2L2302.88 1310.04ZM800.385 1107.79C561.975 1519.38 349.437 1978.16 162.791 2484.13L161.433 2483.74C348.112 1977.68 561.44 1518.6 799.904 1106.91L800.385 1107.79ZM2279.79 1267.96C1905.59 1008.96 1595.65 866.392 1349.14 839.812C1225.9 826.525 1118.22 841.849 1026.9 886.567C935.594 931.284 859.923 1005 800.385 1107.79L799.904 1106.91C859.585 1003.88 934.757 930.58 1026.42 885.69C1118.08 840.801 1225.56 824.262 1349.05 837.578C1596 864.204 1906.79 1007.07 2281.07 1266.12L2279.79 1267.96ZM800.385 1107.79C561.966 1519.39 341.783 1964.18 139.704 2442.05L138.346 2441.65C340.436 1963.73 561.448 1518.58 799.904 1106.91L800.385 1107.79ZM2256.71 1225.87C1890.22 980.928 1586.02 848.849 1343.37 829.292C1222.06 819.514 1115.81 837.462 1025.46 883.937C935.106 930.409 859.926 1005 800.385 1107.79L799.904 1106.91C859.582 1003.89 934.287 929.708 1024.98 883.06C1115.67 836.413 1221.72 817.259 1343.28 827.057C1586.37 846.651 1891.41 979.041 2257.98 1224.03L2256.71 1225.87ZM800.385 1107.79C561.958 1519.4 334.114 1950.2 116.616 2399.97L115.259 2399.57C332.775 1949.76 561.456 1518.57 799.904 1106.91L800.385 1107.79ZM2233.62 1183.79C1874.84 952.903 1576.39 831.307 1337.59 818.771C1218.21 812.504 1113.42 833.076 1024.02 881.307C934.621 929.536 859.928 1005 800.385 1107.79L799.904 1106.91C859.58 1003.89 933.814 928.836 1023.54 880.43C1113.25 832.025 1217.87 810.255 1337.51 816.536C1576.75 829.095 1876.04 951.012 2234.89 1181.95L2233.62 1183.79ZM800.385 1107.79C561.95 1519.42 326.445 1936.22 93.5288 2357.88L92.1711 2357.49C325.114 1935.8 561.464 1518.55 799.904 1106.91L800.385 1107.79ZM2210.53 1141.71C1859.47 924.877 1566.75 813.766 1331.82 808.25C1214.37 805.492 1111.01 828.689 1022.57 878.676C934.133 928.664 859.931 1004.99 800.385 1107.79L799.904 1106.91C859.577 1003.9 933.344 927.961 1022.09 877.8C1110.84 827.639 1214.02 803.254 1331.74 806.016C1567.13 811.543 1860.65 922.984 2211.8 1139.87L2210.53 1141.71ZM800.385 1107.79C561.941 1519.43 318.806 1922.22 70.4414 2315.8L69.0837 2315.4C317.422 1921.85 561.473 1518.54 799.904 1106.91L800.385 1107.79ZM2187.44 1099.62C1844.1 896.852 1557.13 796.223 1326.05 797.729C1095.06 799.235 919.456 902.228 800.385 1107.79L799.904 1106.91C919.271 900.842 1094.34 797.006 1325.96 795.495C1557.5 793.986 1845.27 894.955 2188.72 1097.79L2187.44 1099.62ZM800.385 1107.79C561.933 1519.45 311.151 1908.24 47.3539 2273.72L46.8729 2272.84C310.623 1907.42 561.481 1518.52 799.904 1106.91L800.385 1107.79ZM2164.36 1057.54C1828.73 868.826 1547.5 778.682 1320.28 787.209C1093.14 795.733 919.464 902.214 800.385 1107.79L799.904 1106.91C919.263 900.854 1092.43 793.522 1320.19 784.974C1547.88 776.43 1829.89 866.925 2165.63 1055.7L2164.36 1057.54ZM800.385 1107.79C561.925 1519.46 303.499 1894.25 24.2665 2231.63L23.3045 2229.88C302.465 1892.58 561.489 1518.51 799.904 1106.91L800.385 1107.79ZM2141.27 1015.46C1813.36 840.799 1537.87 761.141 1314.51 776.688C1091.21 792.231 919.471 902.202 800.385 1107.79L799.904 1106.91C919.256 900.867 1090.52 790.038 1314.42 774.454C1538.25 758.873 1814.51 838.899 2142.54 1013.62L2141.27 1015.46ZM800.385 1107.79C561.917 1519.48 295.847 1880.27 1.17905 2189.55L0.217075 2187.8C294.787 1878.62 561.497 1518.5 799.904 1106.91L800.385 1107.79ZM2118.18 973.375C1797.98 812.774 1528.24 743.599 1308.73 766.167C1089.29 788.727 919.478 902.19 800.385 1107.79L799.904 1106.91C919.249 900.879 1088.61 786.556 1308.65 763.933C1528.62 741.318 1799.13 810.87 2119.45 971.537L2118.18 973.375ZM800.385 1107.79C561.908 1519.49 288.197 1866.29 -21.9084 2147.47L-22.8704 2145.71C287.107 1864.66 561.506 1518.48 799.904 1106.91L800.385 1107.79ZM2094.61 930.416C1782.13 783.869 1518.61 726.059 1302.96 755.647C1087.37 785.225 919.486 902.178 800.385 1107.79L799.904 1106.91C919.242 900.891 1086.7 783.071 1302.88 753.412C1519 723.762 1783.27 781.967 2095.89 928.577L2094.61 930.416ZM800.385 1107.79C561.9 1519.51 280.564 1852.3 -44.9958 2105.39L-45.9578 2103.63C279.411 1850.7 561.514 1518.47 799.904 1106.91L800.385 1107.79ZM2071.53 888.333C1766.76 755.843 1508.99 708.519 1297.19 745.126C1085.44 781.725 919.491 902.167 800.385 1107.79L799.904 1106.91C919.236 900.902 1084.8 779.587 1297.11 742.891C1509.37 706.204 1767.89 753.938 2072.8 886.494L2071.53 888.333ZM800.385 1107.79C561.891 1519.52 272.933 1838.32 -68.0833 2063.3L-69.0452 2061.55C271.712 1836.74 561.524 1518.45 799.904 1106.91L800.385 1107.79ZM2048.44 846.25C1751.39 727.817 1499.36 690.98 1291.42 734.605C1083.51 778.225 919.497 902.156 800.385 1107.79L799.904 1106.91C919.23 900.913 1082.89 776.1 1291.33 732.371C1499.74 688.646 1752.5 725.91 2049.71 844.411L2048.44 846.25ZM800.385 1107.79C561.882 1519.54 265.303 1824.34 -91.1707 2021.22L-92.1327 2019.47C264.011 1822.77 561.533 1518.44 799.904 1106.91L800.385 1107.79ZM2025.35 804.167C1736.03 699.787 1489.74 673.437 1285.65 724.084C1081.59 774.723 919.503 902.145 800.385 1107.79L799.904 1106.91C919.224 900.923 1080.99 772.616 1285.56 721.85C1490.1 671.09 1737.12 697.885 2026.62 802.328L2025.35 804.167ZM800.385 1107.79C561.873 1519.55 257.661 1810.38 -114.258 1979.14L-115.22 1977.38C256.323 1808.8 561.542 1518.42 799.904 1106.91L800.385 1107.79ZM2002.26 762.084C1720.66 671.759 1480.12 655.895 1279.88 713.564C1079.66 771.225 919.509 902.136 800.385 1107.79L799.904 1106.91C919.218 900.934 1079.08 769.13 1279.79 711.329C1480.47 653.536 1721.73 669.859 2003.54 760.246L2002.26 762.084ZM800.385 1107.79C561.863 1519.57 249.555 1795.53 -137.827 1936.18L-138.308 1935.3C248.618 1794.82 561.552 1518.4 799.904 1106.91L800.385 1107.79ZM1980.05 719.52C1706.16 643.249 1470.5 638.354 1274.1 703.043C1077.73 767.725 919.516 902.126 800.385 1107.79L799.904 1106.91C919.211 900.943 1077.18 765.643 1274.02 700.808C1470.84 635.98 1706.35 641.833 1980.45 718.163L1980.05 719.52ZM800.385 1107.79C561.852 1519.59 241.901 1781.58 -160.914 1894.09L-161.395 1893.22C240.943 1780.83 561.563 1518.38 799.904 1106.91L800.385 1107.79ZM1956.97 677.438C1690.8 615.218 1460.88 620.811 1268.33 692.522C1075.8 764.229 919.52 902.116 800.385 1107.79L799.904 1106.91C919.206 900.952 1075.28 762.155 1268.25 690.288C1461.2 618.426 1690.97 613.809 1957.36 676.08L1956.97 677.438ZM800.385 1107.79C561.839 1519.61 234.262 1767.62 -184.001 1852.01L-184.482 1851.13C233.25 1766.85 561.575 1518.36 799.904 1106.91L800.385 1107.79ZM1933.88 635.355C1675.42 587.187 1451.26 603.268 1262.56 682.001C1073.87 760.732 919.525 902.107 800.385 1107.79L799.904 1106.91C919.201 900.96 1073.38 758.665 1262.47 679.767C1451.56 600.871 1675.59 585.786 1934.27 633.997L1933.88 635.355ZM800.385 1107.79C561.826 1519.63 226.623 1753.66 -207.089 1809.93L-207.57 1809.05C225.559 1752.86 561.588 1518.34 799.904 1106.91L800.385 1107.79ZM1910.79 593.272C1660.05 559.156 1441.65 585.722 1256.79 671.481C1071.93 757.237 919.53 902.099 800.385 1107.79L799.904 1106.91C919.196 900.969 1071.48 755.175 1256.7 669.246C1441.92 583.32 1660.2 557.763 1911.19 591.914L1910.79 593.272ZM800.385 1107.79C561.814 1519.66 218.97 1739.71 -230.176 1767.85L-231.138 1766.09C217.402 1738 561.601 1518.32 799.904 1106.91L800.385 1107.79ZM1887.7 551.189C1644.68 531.121 1432.91 567.695 1251.89 660.479C1070.88 753.262 919.535 902.09 800.385 1107.79L799.904 1106.91C919.191 900.978 1069.58 751.683 1250.93 658.726C1432.28 565.77 1644.34 528.866 1887.62 548.954L1887.7 551.189ZM800.385 1107.79C561.799 1519.68 210.439 1726.24 -254.141 1726.24L-254.226 1724.01C209.725 1724 561.616 1518.29 799.904 1106.91L800.385 1107.79ZM1864.62 509.106C1629.31 503.088 1423.29 550.148 1246.12 649.958C1068.95 749.769 919.54 902.084 800.385 1107.79L799.904 1106.91C919.189 900.985 1067.68 748.19 1245.16 648.205C1422.64 548.22 1628.96 500.847 1864.53 506.871L1864.62 509.106ZM800.385 1107.79C681.1 1313.72 531.946 1465.27 352.245 1561.24C172.562 1657.2 -37.2458 1698.22 -277.228 1684.16L-277.313 1681.93C-37.6072 1695.98 171.903 1655.29 351.283 1559.48C530.645 1463.69 680.752 1312.62 799.904 1106.91L800.385 1107.79ZM1841.53 467.023C1386.39 483.079 1038.68 696.398 800.385 1107.79L799.904 1106.91C1038.48 695.038 1384.8 481.349 1840.57 465.27L1841.53 467.023ZM800.385 1107.79C681.095 1313.73 530.046 1461.77 346.473 1550.72C162.916 1639.65 -52.634 1670.2 -300.315 1642.08L-300.401 1639.84C-52.971 1667.94 163.171 1637.25 346.388 1548.48C529.589 1459.72 680.757 1312.61 799.904 1106.91L800.385 1107.79ZM1818.44 424.94C1378.71 469.09 1038.7 696.373 800.385 1107.79L799.904 1106.91C1038.47 695.061 1377.15 467.395 1817.48 423.187L1818.44 424.94ZM800.385 1107.79C681.09 1313.74 528.131 1458.29 340.701 1540.2C153.269 1622.11 -68.0097 1642.18 -323.403 1599.99L-323.488 1597.76C-68.3483 1639.91 153.563 1619.71 340.616 1537.96C527.672 1456.22 680.762 1312.6 799.904 1106.91L800.385 1107.79ZM1795.35 382.857C1371.03 455.1 1038.71 696.349 800.385 1107.79L799.904 1106.91C1038.45 695.084 1369.5 453.442 1794.39 381.104L1795.35 382.857ZM800.385 1107.79C681.085 1313.75 526.229 1454.8 334.929 1529.68C143.623 1604.56 -83.8816 1613.28 -346.971 1557.04L-346.576 1555.68C-83.7107 1611.87 143.955 1602.16 334.844 1527.44C525.741 1452.72 680.767 1312.59 799.904 1106.91L800.385 1107.79ZM1771.79 339.898C1362.86 440.237 1038.72 696.329 800.385 1107.79L799.904 1106.91C1038.44 695.105 1361.86 439.486 1771.3 339.021L1771.79 339.898ZM800.385 1107.79C681.079 1313.76 524.331 1451.31 329.158 1519.16C133.991 1587 -99.2731 1585.26 -370.059 1514.95L-369.663 1513.59C-99.0714 1583.84 134.332 1584.62 329.072 1516.92C523.807 1449.23 680.772 1312.58 799.904 1106.91L800.385 1107.79ZM1748.7 297.815C1355.17 426.253 1038.73 696.309 800.385 1107.79L799.904 1106.91C1038.43 695.124 1354.22 425.526 1748.22 296.938L1748.7 297.815ZM1725.61 255.732C1347.47 412.272 1038.74 696.291 800.385 1107.79L799.904 1106.91C1038.42 695.144 1346.59 411.563 1725.13 254.855L1725.61 255.732ZM1702.52 213.649C1339.77 398.298 1038.75 696.275 800.385 1107.79L799.904 1106.91C1038.41 695.159 1338.47 396.717 1701.56 211.895L1702.52 213.649ZM1679.44 171.566C1332.08 384.327 1038.76 696.257 800.385 1107.79L799.904 1106.91C1038.4 695.176 1330.84 382.745 1678.47 169.813L1679.44 171.566ZM1656.35 129.483C1324.39 370.361 1038.77 696.243 800.385 1107.79L799.904 1106.91C1038.39 695.19 1323.2 368.769 1655.39 127.73L1656.35 129.483ZM1633.26 87.4002C1316.69 356.398 1038.78 696.228 800.385 1107.79L799.904 1106.91C1038.38 695.207 1315.56 354.789 1632.3 85.6468L1633.26 87.4002ZM1610.17 45.3173C1309 342.44 1038.79 696.214 800.385 1107.79L799.904 1106.91C1038.38 695.221 1307.92 340.805 1609.21 43.5639L1610.17 45.3173ZM1587.09 3.23443C1301.32 328.482 1038.8 696.199 800.385 1107.79L799.904 1106.91C1038.37 695.236 1300.28 326.819 1586.12 1.48098L1587.09 3.23443Z" fill="url(#paint0_linear_515_1231)"/>
<defs>
<linearGradient id="paint0_linear_515_1231" x1="515.527" y1="588.744" x2="1788.77" y2="2909.56" gradientUnits="userSpaceOnUse">
<stop stop-color="#1B998B"/>
<stop offset="0.614583" stop-color="#1B3532"/>
<stop offset="1" stop-color="#1CA797"/>
</linearGradient>
</defs>
</svg>
