<svg width="115" height="115" viewBox="0 0 115 115" fill="none" xmlns="http://www.w3.org/2000/svg">
<path d="M100.189 85.2045V94.9621H14.8105V85.2045C15.3333 85.0302 15.856 84.856 16.3787 84.856C18.4696 84.856 20.3863 86.2499 21.0833 87.9924C21.7802 87.4696 22.6515 87.2954 23.6969 87.2954C25.2651 87.2954 26.659 87.9924 27.5302 89.2121C27.8787 87.6439 29.2727 86.5984 30.8409 86.5984C31.5378 86.5984 32.2348 86.7727 32.7575 87.2954C33.4545 86.5984 34.4999 86.0757 35.3712 85.9015V85.7272C35.3712 83.8105 36.9393 82.2424 38.856 82.2424C39.2045 82.2424 39.553 82.2424 39.9015 82.4166C40.4242 80.1515 42.5151 78.5833 44.7802 78.5833C46.3484 78.5833 47.7424 79.2802 48.7878 80.4999C50.7045 73.8787 51.7499 68.9999 52.2727 66.5605H62.3787C62.9015 68.9999 63.9469 73.8787 65.8636 80.4999C66.7348 79.4545 68.1287 78.7575 69.6969 78.7575C72.1363 78.7575 74.053 80.3257 74.5757 82.5909C74.9242 82.4166 75.2727 82.4166 75.6212 82.4166C77.5378 82.4166 79.106 83.9848 79.106 85.9015V86.0757C80.1515 86.2499 81.0227 86.7727 81.7196 87.4696C82.2424 87.1212 82.9393 86.7727 83.6363 86.7727C85.2045 86.7727 86.5984 87.8181 86.9469 89.3863C87.8181 88.3408 89.2121 87.4696 90.7802 87.4696C91.6515 87.4696 92.6969 87.6439 93.3939 88.1666C94.0908 86.2499 96.0075 85.0302 98.0984 85.0302C99.1439 84.856 99.6666 85.0302 100.189 85.2045Z" fill="white"/>
<path d="M101.06 45.8257H76.3178C78.7572 46.8711 80.6739 48.7878 81.8936 51.053H101.06C101.583 51.053 101.931 51.4014 101.931 51.9242V96.7045H13.0678V51.9242C13.0678 51.4014 13.4163 51.053 13.939 51.053H33.1057C34.3254 48.7878 36.2421 46.8711 38.6815 45.8257H13.939C10.6284 45.8257 7.84055 48.6136 7.84055 51.9242V101.061C7.84055 101.409 8.0148 101.583 8.36328 101.758C8.53752 101.758 8.71177 101.932 8.88601 101.932H106.462C106.984 101.932 107.333 101.583 107.333 101.061V51.9242C107.159 48.4393 104.371 45.8257 101.06 45.8257ZM71.6133 103.5C71.6133 103.848 71.6133 103.674 68.9996 109.424C68.8254 109.773 68.4769 109.947 68.1284 109.947H46.8709C46.5224 109.947 46.1739 109.773 45.9996 109.424L43.5602 103.848C43.5602 103.674 43.386 103.674 43.386 103.5H2.61328V108.901L7.49207 114.129H107.507L112.386 108.901V103.5H71.6133ZM14.8103 109.424H13.0678V107.682H14.8103V109.424ZM19.1663 109.424H17.4239V107.682H19.1663V109.424ZM23.5224 109.424H21.7799V107.682H23.5224V109.424ZM93.2193 109.424H91.4769V107.682H93.2193V109.424ZM97.5754 109.424H95.833V107.682H97.5754V109.424ZM101.931 109.424H100.189V107.682H101.931V109.424ZM67.6057 108.204L69.8709 103.5H45.3027L47.3936 108.204H67.6057Z" fill="white"/>
<path d="M45.4768 58.8938C38.1586 60.1135 36.0677 72.8332 36.0677 72.8332H32.2344C32.2344 68.8256 33.1056 58.1969 33.9768 54.1893C34.6738 50.5302 37.2874 47.7423 42.1662 46.5226C42.5147 49.8332 42.6889 53.1438 45.4768 58.8938ZM82.7647 72.8332H78.9313C78.9313 72.8332 76.8404 60.1135 69.5223 58.8938C72.1359 53.3181 72.4844 48.962 72.8329 46.5226C77.8859 47.7423 80.4995 50.5302 81.0223 54.1893C81.8935 58.3711 82.9389 68.8256 82.7647 72.8332ZM63.9465 64.6438H62.2041H63.9465ZM57.4995 0.871094C57.4995 0.871094 54.5374 5.22715 51.2268 12.0226H63.7723C60.6359 5.57564 57.6738 1.21958 57.4995 0.871094ZM57.4995 21.2575C55.0601 21.2575 52.9692 23.3484 52.9692 25.7878C52.9692 31.8862 62.0298 31.8862 62.0298 25.7878C62.0298 23.3484 59.9389 21.2575 57.4995 21.2575Z" fill="white"/>
<path d="M64.4693 13.7651H50.5299C42.8632 30.6666 39.7268 50.1818 51.0526 64.6439H63.9465C75.4465 50.1818 72.1359 30.6666 64.4693 13.7651ZM57.4996 32.2348C54.0147 32.2348 51.2268 29.447 51.2268 25.9621C51.2268 22.4773 54.0147 19.6894 57.4996 19.6894C60.9844 19.6894 63.7723 22.4773 63.7723 25.9621C63.7723 29.447 60.9844 32.2348 57.4996 32.2348Z" fill="white"/>
</svg>
